<?xml version="1.0" encoding="utf-8" standalone="no"?>
<!DOCTYPE svg PUBLIC "-//W3C//DTD SVG 1.1//EN"
  "http://www.w3.org/Graphics/SVG/1.1/DTD/svg11.dtd">
<!-- Created with matplotlib (http://matplotlib.org/) -->
<svg height="345pt" version="1.1" viewBox="0 0 460 345" width="460pt" xmlns="http://www.w3.org/2000/svg" xmlns:xlink="http://www.w3.org/1999/xlink">
 <defs>
  <style type="text/css">
*{stroke-linecap:butt;stroke-linejoin:round;}
  </style>
 </defs>
 <g id="figure_1">
  <g id="patch_1">
   <path d="M 0 345.6 
L 460.8 345.6 
L 460.8 0 
L 0 0 
z
" style="fill:#ffffff;"/>
  </g>
  <g id="axes_1">
   <g id="patch_2">
    <path d="M 57.6 307.584 
L 414.72 307.584 
L 414.72 41.472 
L 57.6 41.472 
z
" style="fill:#ffffff;"/>
   </g>
   <g id="PolyCollection_1">
    <path clip-path="url(#p71934dab7f)" d="M 82.521618 295.488 
L 82.230918 295.488 
L 82.211997 293.081296 
L 82.192269 290.674591 
L 82.170405 288.267887 
L 82.144489 285.861183 
L 82.112239 283.454478 
L 82.071346 281.047774 
L 82.019885 278.64107 
L 81.956699 276.234366 
L 81.881676 273.827661 
L 81.795847 271.420957 
L 81.70127 269.014253 
L 81.600709 266.607548 
L 81.497156 264.200844 
L 81.393299 261.79414 
L 81.291019 259.387435 
L 81.19104 256.980731 
L 81.092783 254.574027 
L 80.994455 252.167323 
L 80.893354 249.760618 
L 80.786307 247.353914 
L 80.670137 244.94721 
L 80.542061 242.540505 
L 80.399939 240.133801 
L 80.242385 237.727097 
L 80.068757 235.320392 
L 79.879147 232.913688 
L 79.674417 230.506984 
L 79.456333 228.100279 
L 79.227744 225.693575 
L 78.9927 223.286871 
L 78.75638 220.880167 
L 78.524741 218.473462 
L 78.3039 216.066758 
L 78.099328 213.660054 
L 77.915059 211.253349 
L 77.753106 208.846645 
L 77.613228 206.439941 
L 77.493105 204.033236 
L 77.388868 201.626532 
L 77.295827 199.219828 
L 77.209218 196.813124 
L 77.124803 194.406419 
L 77.039211 191.999715 
L 76.949993 189.593011 
L 76.855455 187.186306 
L 76.754359 184.779602 
L 76.645656 182.372898 
L 76.528332 179.966193 
L 76.401463 177.559489 
L 76.264433 175.152785 
L 76.117236 172.746081 
L 75.960739 170.339376 
L 75.796762 167.932672 
L 75.627928 165.525968 
L 75.457286 163.119263 
L 75.287838 160.712559 
L 75.122113 158.305855 
L 74.961948 155.89915 
L 74.808526 153.492446 
L 74.662639 151.085742 
L 74.525039 148.679037 
L 74.396695 146.272333 
L 74.278859 143.865629 
L 74.172903 141.458925 
L 74.08003 139.05222 
L 74.001043 136.645516 
L 73.93632 134.238812 
L 73.8861 131.832107 
L 73.85102 129.425403 
L 73.832727 127.018699 
L 73.834349 124.611994 
L 73.860574 122.20529 
L 73.917256 119.798586 
L 74.010552 117.391882 
L 74.145793 114.985177 
L 74.326344 112.578473 
L 74.552743 110.171769 
L 74.822329 107.765064 
L 75.12944 105.35836 
L 75.4661 102.951656 
L 75.823021 100.544951 
L 76.190684 98.138247 
L 76.560271 95.731543 
L 76.924323 93.324838 
L 77.277081 90.918134 
L 77.614558 88.51143 
L 77.934445 86.104726 
L 78.235942 83.698021 
L 78.519591 81.291317 
L 78.787113 78.884613 
L 79.041231 76.477908 
L 79.285424 74.071204 
L 79.523554 71.6645 
L 79.759369 69.257795 
L 79.995916 66.851091 
L 80.234947 64.444387 
L 80.476468 62.037683 
L 80.718543 59.630978 
L 80.957435 57.224274 
L 83.795101 57.224274 
L 83.795101 57.224274 
L 84.033993 59.630978 
L 84.276068 62.037683 
L 84.517589 64.444387 
L 84.75662 66.851091 
L 84.993167 69.257795 
L 85.228982 71.6645 
L 85.467112 74.071204 
L 85.711304 76.477908 
L 85.965423 78.884613 
L 86.232945 81.291317 
L 86.516594 83.698021 
L 86.818091 86.104726 
L 87.137978 88.51143 
L 87.475455 90.918134 
L 87.828213 93.324838 
L 88.192265 95.731543 
L 88.561852 98.138247 
L 88.929515 100.544951 
L 89.286436 102.951656 
L 89.623095 105.35836 
L 89.930206 107.765064 
L 90.199793 110.171769 
L 90.426192 112.578473 
L 90.606743 114.985177 
L 90.741984 117.391882 
L 90.83528 119.798586 
L 90.891962 122.20529 
L 90.918187 124.611994 
L 90.919809 127.018699 
L 90.901516 129.425403 
L 90.866435 131.832107 
L 90.816216 134.238812 
L 90.751493 136.645516 
L 90.672505 139.05222 
L 90.579633 141.458925 
L 90.473676 143.865629 
L 90.355841 146.272333 
L 90.227497 148.679037 
L 90.089897 151.085742 
L 89.94401 153.492446 
L 89.790588 155.89915 
L 89.630422 158.305855 
L 89.464698 160.712559 
L 89.29525 163.119263 
L 89.124608 165.525968 
L 88.955774 167.932672 
L 88.791797 170.339376 
L 88.6353 172.746081 
L 88.488103 175.152785 
L 88.351073 177.559489 
L 88.224204 179.966193 
L 88.10688 182.372898 
L 87.998176 184.779602 
L 87.897081 187.186306 
L 87.802543 189.593011 
L 87.713325 191.999715 
L 87.627733 194.406419 
L 87.543317 196.813124 
L 87.456709 199.219828 
L 87.363668 201.626532 
L 87.259431 204.033236 
L 87.139308 206.439941 
L 86.99943 208.846645 
L 86.837477 211.253349 
L 86.653208 213.660054 
L 86.448635 216.066758 
L 86.227795 218.473462 
L 85.996156 220.880167 
L 85.759836 223.286871 
L 85.524792 225.693575 
L 85.296203 228.100279 
L 85.078119 230.506984 
L 84.873389 232.913688 
L 84.683779 235.320392 
L 84.510151 237.727097 
L 84.352597 240.133801 
L 84.210475 242.540505 
L 84.082399 244.94721 
L 83.966229 247.353914 
L 83.859182 249.760618 
L 83.758081 252.167323 
L 83.659753 254.574027 
L 83.561496 256.980731 
L 83.461517 259.387435 
L 83.359237 261.79414 
L 83.255379 264.200844 
L 83.151827 266.607548 
L 83.051266 269.014253 
L 82.956689 271.420957 
L 82.87086 273.827661 
L 82.795837 276.234366 
L 82.732651 278.64107 
L 82.68119 281.047774 
L 82.640297 283.454478 
L 82.608046 285.861183 
L 82.582131 288.267887 
L 82.560267 290.674591 
L 82.540539 293.081296 
L 82.521618 295.488 
z
" style="fill:#1f77b4;fill-opacity:0.3;"/>
   </g>
   <g id="PolyCollection_2">
    <path clip-path="url(#p71934dab7f)" d="M 116.616149 221.093848 
L 116.484712 221.093848 
L 116.473538 219.413793 
L 116.461798 217.733739 
L 116.449636 216.053684 
L 116.437299 214.373629 
L 116.42515 212.693574 
L 116.413644 211.013519 
L 116.403245 209.333465 
L 116.394311 207.65341 
L 116.386956 205.973355 
L 116.380941 204.2933 
L 116.375636 202.613246 
L 116.370082 200.933191 
L 116.363157 199.253136 
L 116.353815 197.573081 
L 116.341337 195.893026 
L 116.325499 194.212972 
L 116.306619 192.532917 
L 116.285441 190.852862 
L 116.262913 189.172807 
L 116.239906 187.492752 
L 116.21697 185.812698 
L 116.194166 184.132643 
L 116.171001 182.452588 
L 116.146443 180.772533 
L 116.118989 179.092478 
L 116.086746 177.412424 
L 116.047522 175.732369 
L 115.998923 174.052314 
L 115.938509 172.372259 
L 115.864024 170.692204 
L 115.773736 169.01215 
L 115.666834 167.332095 
L 115.543815 165.65204 
L 115.406752 163.971985 
L 115.259314 162.29193 
L 115.10649 160.611876 
L 114.954041 158.931821 
L 114.807785 157.251766 
L 114.672876 155.571711 
L 114.553231 153.891656 
L 114.451208 152.211602 
L 114.367536 150.531547 
L 114.301457 148.851492 
L 114.250989 147.171437 
L 114.213236 145.491382 
L 114.184686 143.811328 
L 114.161465 142.131273 
L 114.139501 140.451218 
L 114.114571 138.771163 
L 114.082188 137.091108 
L 114.037382 135.411054 
L 113.974451 133.730999 
L 113.886881 132.050944 
L 113.767605 130.370889 
L 113.609729 128.690834 
L 113.407695 127.01078 
L 113.158667 125.330725 
L 112.863791 123.65067 
L 112.528953 121.970615 
L 112.164728 120.29056 
L 111.785438 118.610506 
L 111.407433 116.930451 
L 111.046882 115.250396 
L 110.717482 113.570341 
L 110.428484 111.890286 
L 110.183399 110.210232 
L 109.979637 108.530177 
L 109.809191 106.850122 
L 109.660318 105.170067 
L 109.519936 103.490012 
L 109.376287 101.809958 
L 109.2213 100.129903 
L 109.052121 98.449848 
L 108.871486 96.769793 
L 108.686883 95.089738 
L 108.508786 93.409684 
L 108.348403 91.729629 
L 108.215469 90.049574 
L 108.116476 88.369519 
L 108.053571 86.689464 
L 108.024202 85.00941 
L 108.021477 83.329355 
L 108.035229 81.6493 
L 108.053748 79.969245 
L 108.066094 78.28919 
L 108.064791 76.609136 
L 108.048477 74.929081 
L 108.023935 73.249026 
L 108.00689 71.568971 
L 108.021083 69.888916 
L 108.095479 68.208862 
L 108.259877 66.528807 
L 108.539644 64.848752 
L 108.950568 63.168697 
L 109.494939 61.488642 
L 110.159786 59.808588 
L 110.917758 58.128533 
L 111.730603 56.448478 
L 112.554568 54.768423 
L 120.546293 54.768423 
L 120.546293 54.768423 
L 121.370258 56.448478 
L 122.183104 58.128533 
L 122.941075 59.808588 
L 123.605922 61.488642 
L 124.150294 63.168697 
L 124.561217 64.848752 
L 124.840984 66.528807 
L 125.005383 68.208862 
L 125.079778 69.888916 
L 125.093971 71.568971 
L 125.076926 73.249026 
L 125.052385 74.929081 
L 125.03607 76.609136 
L 125.034767 78.28919 
L 125.047113 79.969245 
L 125.065632 81.6493 
L 125.079385 83.329355 
L 125.076659 85.00941 
L 125.04729 86.689464 
L 124.984386 88.369519 
L 124.885392 90.049574 
L 124.752458 91.729629 
L 124.592075 93.409684 
L 124.413978 95.089738 
L 124.229376 96.769793 
L 124.04874 98.449848 
L 123.879561 100.129903 
L 123.724574 101.809958 
L 123.580925 103.490012 
L 123.440543 105.170067 
L 123.29167 106.850122 
L 123.121224 108.530177 
L 122.917462 110.210232 
L 122.672378 111.890286 
L 122.383379 113.570341 
L 122.053979 115.250396 
L 121.693428 116.930451 
L 121.315423 118.610506 
L 120.936134 120.29056 
L 120.571908 121.970615 
L 120.23707 123.65067 
L 119.942195 125.330725 
L 119.693166 127.01078 
L 119.491132 128.690834 
L 119.333256 130.370889 
L 119.21398 132.050944 
L 119.12641 133.730999 
L 119.06348 135.411054 
L 119.018673 137.091108 
L 118.98629 138.771163 
L 118.96136 140.451218 
L 118.939397 142.131273 
L 118.916176 143.811328 
L 118.887626 145.491382 
L 118.849872 147.171437 
L 118.799404 148.851492 
L 118.733325 150.531547 
L 118.649653 152.211602 
L 118.54763 153.891656 
L 118.427986 155.571711 
L 118.293076 157.251766 
L 118.14682 158.931821 
L 117.994372 160.611876 
L 117.841547 162.29193 
L 117.694109 163.971985 
L 117.557046 165.65204 
L 117.434028 167.332095 
L 117.327125 169.01215 
L 117.236837 170.692204 
L 117.162353 172.372259 
L 117.101938 174.052314 
L 117.053339 175.732369 
L 117.014115 177.412424 
L 116.981872 179.092478 
L 116.954418 180.772533 
L 116.92986 182.452588 
L 116.906695 184.132643 
L 116.883892 185.812698 
L 116.860956 187.492752 
L 116.837948 189.172807 
L 116.81542 190.852862 
L 116.794242 192.532917 
L 116.775362 194.212972 
L 116.759524 195.893026 
L 116.747046 197.573081 
L 116.737704 199.253136 
L 116.730779 200.933191 
L 116.725225 202.613246 
L 116.719921 204.2933 
L 116.713905 205.973355 
L 116.70655 207.65341 
L 116.697616 209.333465 
L 116.687218 211.013519 
L 116.675711 212.693574 
L 116.663562 214.373629 
L 116.651225 216.053684 
L 116.639064 217.733739 
L 116.627324 219.413793 
L 116.616149 221.093848 
z
" style="fill:#1f77b4;fill-opacity:0.3;"/>
   </g>
   <g id="PolyCollection_3">
    <path clip-path="url(#p71934dab7f)" d="M 150.800675 170.877343 
L 150.648512 170.877343 
L 150.637609 169.696785 
L 150.628663 168.516227 
L 150.622495 167.335669 
L 150.619573 166.155111 
L 150.619852 164.974554 
L 150.622693 163.793996 
L 150.626931 162.613438 
L 150.631073 161.43288 
L 150.63361 160.252322 
L 150.633346 159.071765 
L 150.629658 157.891207 
L 150.622608 156.710649 
L 150.612865 155.530091 
L 150.601467 154.349533 
L 150.589488 153.168975 
L 150.577707 151.988418 
L 150.566361 150.80786 
L 150.555043 149.627302 
L 150.542755 148.446744 
L 150.528083 147.266186 
L 150.509432 146.085629 
L 150.485267 144.905071 
L 150.454313 143.724513 
L 150.415685 142.543955 
L 150.368963 141.363397 
L 150.314221 140.18284 
L 150.252052 139.002282 
L 150.1836 137.821724 
L 150.110615 136.641166 
L 150.035471 135.460608 
L 149.961111 134.28005 
L 149.890812 133.099493 
L 149.827768 131.918935 
L 149.7745 130.738377 
L 149.732254 129.557819 
L 149.700552 128.377261 
L 149.677072 127.196704 
L 149.657955 126.016146 
L 149.638465 124.835588 
L 149.613841 123.65503 
L 149.580098 122.474472 
L 149.534607 121.293914 
L 149.476347 120.113357 
L 149.405856 118.932799 
L 149.32497 117.752241 
L 149.236407 116.571683 
L 149.143283 115.391125 
L 149.048555 114.210568 
L 148.954474 113.03001 
L 148.862139 111.849452 
L 148.771306 110.668894 
L 148.680555 109.488336 
L 148.58781 108.307779 
L 148.491045 107.127221 
L 148.388908 105.946663 
L 148.281001 104.766105 
L 148.167684 103.585547 
L 148.0495 102.404989 
L 147.926482 101.224432 
L 147.797645 100.043874 
L 147.660889 98.863316 
L 147.513318 97.682758 
L 147.35181 96.5022 
L 147.173599 95.321643 
L 146.976688 94.141085 
L 146.760057 92.960527 
L 146.523772 91.779969 
L 146.269108 90.599411 
L 145.998738 89.418853 
L 145.716891 88.238296 
L 145.429275 87.057738 
L 145.142614 85.87718 
L 144.8638 84.696622 
L 144.59885 83.516064 
L 144.352028 82.335507 
L 144.125404 81.154949 
L 143.919006 79.974391 
L 143.731399 78.793833 
L 143.560393 77.613275 
L 143.403541 76.432718 
L 143.258261 75.25216 
L 143.121664 74.071602 
L 142.990374 72.891044 
L 142.860734 71.710486 
L 142.729631 70.529928 
L 142.595971 69.349371 
L 142.462544 68.168813 
L 142.337769 66.988255 
L 142.236746 65.807697 
L 142.181053 64.627139 
L 142.19696 63.446582 
L 142.312059 62.266024 
L 142.550694 61.085466 
L 142.929014 59.904908 
L 143.450675 58.72435 
L 144.104294 57.543793 
L 144.86344 56.363235 
L 145.689447 55.182677 
L 146.536593 54.002119 
L 154.912594 54.002119 
L 154.912594 54.002119 
L 155.75974 55.182677 
L 156.585747 56.363235 
L 157.344893 57.543793 
L 157.998511 58.72435 
L 158.520173 59.904908 
L 158.898493 61.085466 
L 159.137128 62.266024 
L 159.252226 63.446582 
L 159.268134 64.627139 
L 159.212441 65.807697 
L 159.111417 66.988255 
L 158.986643 68.168813 
L 158.853215 69.349371 
L 158.719556 70.529928 
L 158.588453 71.710486 
L 158.458813 72.891044 
L 158.327523 74.071602 
L 158.190925 75.25216 
L 158.045646 76.432718 
L 157.888794 77.613275 
L 157.717787 78.793833 
L 157.53018 79.974391 
L 157.323782 81.154949 
L 157.097159 82.335507 
L 156.850336 83.516064 
L 156.585387 84.696622 
L 156.306572 85.87718 
L 156.019912 87.057738 
L 155.732296 88.238296 
L 155.450449 89.418853 
L 155.180079 90.599411 
L 154.925414 91.779969 
L 154.689129 92.960527 
L 154.472499 94.141085 
L 154.275588 95.321643 
L 154.097376 96.5022 
L 153.935868 97.682758 
L 153.788297 98.863316 
L 153.651541 100.043874 
L 153.522704 101.224432 
L 153.399686 102.404989 
L 153.281503 103.585547 
L 153.168186 104.766105 
L 153.060279 105.946663 
L 152.958142 107.127221 
L 152.861376 108.307779 
L 152.768631 109.488336 
L 152.67788 110.668894 
L 152.587048 111.849452 
L 152.494713 113.03001 
L 152.400632 114.210568 
L 152.305904 115.391125 
L 152.21278 116.571683 
L 152.124217 117.752241 
L 152.04333 118.932799 
L 151.97284 120.113357 
L 151.914579 121.293914 
L 151.869088 122.474472 
L 151.835345 123.65503 
L 151.810721 124.835588 
L 151.791232 126.016146 
L 151.772115 127.196704 
L 151.748635 128.377261 
L 151.716932 129.557819 
L 151.674687 130.738377 
L 151.621419 131.918935 
L 151.558374 133.099493 
L 151.488076 134.28005 
L 151.413715 135.460608 
L 151.338572 136.641166 
L 151.265586 137.821724 
L 151.197135 139.002282 
L 151.134966 140.18284 
L 151.080224 141.363397 
L 151.033501 142.543955 
L 150.994873 143.724513 
L 150.963919 144.905071 
L 150.939755 146.085629 
L 150.921104 147.266186 
L 150.906432 148.446744 
L 150.894144 149.627302 
L 150.882826 150.80786 
L 150.871479 151.988418 
L 150.859699 153.168975 
L 150.84772 154.349533 
L 150.836322 155.530091 
L 150.826578 156.710649 
L 150.819528 157.891207 
L 150.815841 159.071765 
L 150.815577 160.252322 
L 150.818114 161.43288 
L 150.822256 162.613438 
L 150.826493 163.793996 
L 150.829335 164.974554 
L 150.829614 166.155111 
L 150.826692 167.335669 
L 150.820523 168.516227 
L 150.811578 169.696785 
L 150.800675 170.877343 
z
" style="fill:#1f77b4;fill-opacity:0.3;"/>
   </g>
   <g id="PolyCollection_4">
    <path clip-path="url(#p71934dab7f)" d="M 184.937872 146.487694 
L 184.85964 146.487694 
L 184.854265 145.551578 
L 184.848968 144.615463 
L 184.8438 143.679347 
L 184.838967 142.743231 
L 184.834839 141.807116 
L 184.831856 140.871 
L 184.830379 139.934885 
L 184.830527 138.998769 
L 184.832094 138.062653 
L 184.834568 137.126538 
L 184.837222 136.190422 
L 184.839255 135.254306 
L 184.839912 134.318191 
L 184.838597 133.382075 
L 184.834966 132.44596 
L 184.828982 131.509844 
L 184.820938 130.573728 
L 184.811369 129.637613 
L 184.800872 128.701497 
L 184.789852 127.765381 
L 184.778279 126.829266 
L 184.765581 125.89315 
L 184.750743 124.957035 
L 184.732625 124.020919 
L 184.710405 123.084803 
L 184.683975 122.148688 
L 184.654107 121.212572 
L 184.622294 120.276456 
L 184.590292 119.340341 
L 184.559569 118.404225 
L 184.530892 117.46811 
L 184.504252 116.531994 
L 184.479125 115.595878 
L 184.454913 114.659763 
L 184.431302 113.723647 
L 184.408334 112.787531 
L 184.386168 111.851416 
L 184.364663 110.9153 
L 184.343032 109.979185 
L 184.319756 109.043069 
L 184.292815 108.106953 
L 184.260128 107.170838 
L 184.220012 106.234722 
L 184.171507 105.298607 
L 184.114486 104.362491 
L 184.04961 103.426375 
L 183.978189 102.49026 
L 183.901997 101.554144 
L 183.823019 100.618028 
L 183.743094 99.681913 
L 183.663471 98.745797 
L 183.584371 97.809682 
L 183.504734 96.873566 
L 183.422305 95.93745 
L 183.33414 95.001335 
L 183.2374 94.065219 
L 183.130224 93.129103 
L 183.012341 92.192988 
L 182.885199 91.256872 
L 182.751497 90.320757 
L 182.614275 89.384641 
L 182.475846 88.448525 
L 182.336979 87.51241 
L 182.196608 86.576294 
L 182.052157 85.640178 
L 181.900258 84.704063 
L 181.737532 83.767947 
L 181.561092 82.831832 
L 181.368693 81.895716 
L 181.158684 80.9596 
L 180.930081 80.023485 
L 180.682899 79.087369 
L 180.418685 78.151254 
L 180.140881 77.215138 
L 179.854722 76.279022 
L 179.566586 75.342907 
L 179.28304 74.406791 
L 179.009978 73.470675 
L 178.752103 72.53456 
L 178.512676 71.598444 
L 178.293259 70.662329 
L 178.093247 69.726213 
L 177.909268 68.790097 
L 177.734928 67.853982 
L 177.561465 66.917866 
L 177.379683 65.98175 
L 177.183098 65.045635 
L 176.971735 64.109519 
L 176.755632 63.173404 
L 176.556924 62.237288 
L 176.409452 61.301172 
L 176.355215 60.365057 
L 176.437698 59.428941 
L 176.693089 58.492825 
L 177.141329 57.55671 
L 177.779401 56.620594 
L 178.579043 55.684479 
L 179.489929 54.748363 
L 180.447832 53.812247 
L 189.34968 53.812247 
L 189.34968 53.812247 
L 190.307583 54.748363 
L 191.218469 55.684479 
L 192.018111 56.620594 
L 192.656183 57.55671 
L 193.104423 58.492825 
L 193.359814 59.428941 
L 193.442297 60.365057 
L 193.38806 61.301172 
L 193.240588 62.237288 
L 193.04188 63.173404 
L 192.825777 64.109519 
L 192.614414 65.045635 
L 192.417829 65.98175 
L 192.236047 66.917866 
L 192.062584 67.853982 
L 191.888244 68.790097 
L 191.704265 69.726213 
L 191.504253 70.662329 
L 191.284836 71.598444 
L 191.045409 72.53456 
L 190.787534 73.470675 
L 190.514472 74.406791 
L 190.230926 75.342907 
L 189.94279 76.279022 
L 189.656631 77.215138 
L 189.378827 78.151254 
L 189.114612 79.087369 
L 188.867431 80.023485 
L 188.638827 80.9596 
L 188.428819 81.895716 
L 188.23642 82.831832 
L 188.05998 83.767947 
L 187.897254 84.704063 
L 187.745355 85.640178 
L 187.600904 86.576294 
L 187.460533 87.51241 
L 187.321666 88.448525 
L 187.183237 89.384641 
L 187.046015 90.320757 
L 186.912313 91.256872 
L 186.785171 92.192988 
L 186.667288 93.129103 
L 186.560112 94.065219 
L 186.463372 95.001335 
L 186.375207 95.93745 
L 186.292778 96.873566 
L 186.213141 97.809682 
L 186.134041 98.745797 
L 186.054418 99.681913 
L 185.974493 100.618028 
L 185.895515 101.554144 
L 185.819323 102.49026 
L 185.747902 103.426375 
L 185.683026 104.362491 
L 185.626005 105.298607 
L 185.5775 106.234722 
L 185.537384 107.170838 
L 185.504697 108.106953 
L 185.477756 109.043069 
L 185.45448 109.979185 
L 185.432849 110.9153 
L 185.411344 111.851416 
L 185.389178 112.787531 
L 185.36621 113.723647 
L 185.342599 114.659763 
L 185.318387 115.595878 
L 185.29326 116.531994 
L 185.26662 117.46811 
L 185.237943 118.404225 
L 185.20722 119.340341 
L 185.175218 120.276456 
L 185.143405 121.212572 
L 185.113537 122.148688 
L 185.087107 123.084803 
L 185.064887 124.020919 
L 185.046769 124.957035 
L 185.031931 125.89315 
L 185.019233 126.829266 
L 185.00766 127.765381 
L 184.99664 128.701497 
L 184.986143 129.637613 
L 184.976574 130.573728 
L 184.96853 131.509844 
L 184.962546 132.44596 
L 184.958915 133.382075 
L 184.9576 134.318191 
L 184.958257 135.254306 
L 184.96029 136.190422 
L 184.962944 137.126538 
L 184.965418 138.062653 
L 184.966985 138.998769 
L 184.967133 139.934885 
L 184.965656 140.871 
L 184.962673 141.807116 
L 184.958545 142.743231 
L 184.953712 143.679347 
L 184.948544 144.615463 
L 184.943247 145.551578 
L 184.937872 146.487694 
z
" style="fill:#1f77b4;fill-opacity:0.3;"/>
   </g>
   <g id="PolyCollection_5">
    <path clip-path="url(#p71934dab7f)" d="M 219.10284 124.549797 
L 219.042997 124.549797 
L 219.040468 123.834397 
L 219.037704 123.118998 
L 219.03393 122.403598 
L 219.028546 121.688199 
L 219.021466 120.9728 
L 219.013317 120.2574 
L 219.005393 119.542001 
L 218.999332 118.826601 
L 218.99663 118.111202 
L 218.998162 117.395803 
L 219.003899 116.680403 
L 219.012907 115.965004 
L 219.023609 115.249605 
L 219.034165 114.534205 
L 219.042807 113.818806 
L 219.048029 113.103406 
L 219.048612 112.388007 
L 219.043572 111.672608 
L 219.032166 110.957208 
L 219.014019 110.241809 
L 218.989388 109.526409 
L 218.959425 108.81101 
L 218.926288 108.095611 
L 218.892914 107.380211 
L 218.862462 106.664812 
L 218.837542 105.949412 
L 218.819524 105.234013 
L 218.808215 104.518614 
L 218.80208 103.803214 
L 218.798916 103.087815 
L 218.796714 102.372416 
L 218.794342 101.657016 
L 218.791775 100.941617 
L 218.789801 100.226217 
L 218.789376 99.510818 
L 218.790892 98.795419 
L 218.793632 98.080019 
L 218.795558 97.36462 
L 218.793478 96.64922 
L 218.783504 95.933821 
L 218.761742 95.218422 
L 218.72511 94.503022 
L 218.672181 93.787623 
L 218.603862 93.072223 
L 218.523648 92.356824 
L 218.437231 91.641425 
L 218.351388 90.926025 
L 218.27239 90.210626 
L 218.204383 89.495227 
L 218.148321 88.779827 
L 218.10179 88.064428 
L 218.059735 87.349028 
L 218.015785 86.633629 
L 217.963718 85.91823 
L 217.898724 85.20283 
L 217.818291 84.487431 
L 217.72266 83.772031 
L 217.614755 83.056632 
L 217.499501 82.341233 
L 217.382473 81.625833 
L 217.268133 80.910434 
L 217.158163 80.195034 
L 217.050543 79.479635 
L 216.939842 78.764236 
L 216.818701 78.048836 
L 216.67996 77.333437 
L 216.518595 76.618038 
L 216.332726 75.902638 
L 216.123416 75.187239 
L 215.893575 74.471839 
L 215.646651 73.75644 
L 215.385807 73.041041 
L 215.113846 72.325641 
L 214.833663 71.610242 
L 214.548697 70.894842 
L 214.262933 70.179443 
L 213.980427 69.464044 
L 213.704642 68.748644 
L 213.438004 68.033245 
L 213.181814 67.317845 
L 212.936361 66.602446 
L 212.70097 65.887047 
L 212.473855 65.171647 
L 212.251942 64.456248 
L 212.030963 63.740849 
L 211.806136 63.025449 
L 211.573591 62.31005 
L 211.332574 61.59465 
L 211.088294 60.879251 
L 210.854949 60.163852 
L 210.658027 59.448452 
L 210.534478 58.733053 
L 210.529378 58.017653 
L 210.688429 57.302254 
L 211.047226 56.586855 
L 211.619981 55.871455 
L 212.391519 55.156056 
L 213.31595 54.440657 
L 214.323441 53.725257 
L 223.822396 53.725257 
L 223.822396 53.725257 
L 224.829887 54.440657 
L 225.754318 55.156056 
L 226.525856 55.871455 
L 227.098611 56.586855 
L 227.457408 57.302254 
L 227.616459 58.017653 
L 227.611359 58.733053 
L 227.487811 59.448452 
L 227.290888 60.163852 
L 227.057544 60.879251 
L 226.813263 61.59465 
L 226.572247 62.31005 
L 226.339701 63.025449 
L 226.114874 63.740849 
L 225.893896 64.456248 
L 225.671983 65.171647 
L 225.444868 65.887047 
L 225.209476 66.602446 
L 224.964024 67.317845 
L 224.707834 68.033245 
L 224.441196 68.748644 
L 224.16541 69.464044 
L 223.882904 70.179443 
L 223.597141 70.894842 
L 223.312174 71.610242 
L 223.031991 72.325641 
L 222.76003 73.041041 
L 222.499186 73.75644 
L 222.252263 74.471839 
L 222.022421 75.187239 
L 221.813111 75.902638 
L 221.627242 76.618038 
L 221.465877 77.333437 
L 221.327136 78.048836 
L 221.205995 78.764236 
L 221.095294 79.479635 
L 220.987674 80.195034 
L 220.877704 80.910434 
L 220.763365 81.625833 
L 220.646336 82.341233 
L 220.531082 83.056632 
L 220.423178 83.772031 
L 220.327546 84.487431 
L 220.247114 85.20283 
L 220.182119 85.91823 
L 220.130052 86.633629 
L 220.086102 87.349028 
L 220.044047 88.064428 
L 219.997516 88.779827 
L 219.941455 89.495227 
L 219.873448 90.210626 
L 219.794449 90.926025 
L 219.708607 91.641425 
L 219.622189 92.356824 
L 219.541976 93.072223 
L 219.473656 93.787623 
L 219.420727 94.503022 
L 219.384095 95.218422 
L 219.362333 95.933821 
L 219.352359 96.64922 
L 219.350279 97.36462 
L 219.352205 98.080019 
L 219.354945 98.795419 
L 219.356462 99.510818 
L 219.356037 100.226217 
L 219.354062 100.941617 
L 219.351495 101.657016 
L 219.349124 102.372416 
L 219.346922 103.087815 
L 219.343757 103.803214 
L 219.337622 104.518614 
L 219.326314 105.234013 
L 219.308295 105.949412 
L 219.283375 106.664812 
L 219.252923 107.380211 
L 219.21955 108.095611 
L 219.186412 108.81101 
L 219.15645 109.526409 
L 219.131818 110.241809 
L 219.113671 110.957208 
L 219.102265 111.672608 
L 219.097226 112.388007 
L 219.097808 113.103406 
L 219.103031 113.818806 
L 219.111673 114.534205 
L 219.122228 115.249605 
L 219.132931 115.965004 
L 219.141939 116.680403 
L 219.147675 117.395803 
L 219.149207 118.111202 
L 219.146505 118.826601 
L 219.140444 119.542001 
L 219.132521 120.2574 
L 219.124372 120.9728 
L 219.117291 121.688199 
L 219.111907 122.403598 
L 219.108134 123.118998 
L 219.10537 123.834397 
L 219.10284 124.549797 
z
" style="fill:#1f77b4;fill-opacity:0.3;"/>
   </g>
   <g id="PolyCollection_6">
    <path clip-path="url(#p71934dab7f)" d="M 253.271659 109.133586 
L 253.222504 109.133586 
L 253.223099 108.573162 
L 253.225034 108.012739 
L 253.227582 107.452316 
L 253.22984 106.891892 
L 253.230994 106.331469 
L 253.230547 105.771045 
L 253.228423 105.210622 
L 253.224937 104.650199 
L 253.220634 104.089775 
L 253.216065 103.529352 
L 253.211593 102.968928 
L 253.207309 102.408505 
L 253.2031 101.848081 
L 253.198809 101.287658 
L 253.194389 100.727235 
L 253.189945 100.166811 
L 253.185636 99.606388 
L 253.181514 99.045964 
L 253.177399 98.485541 
L 253.172869 97.925118 
L 253.167366 97.364694 
L 253.160318 96.804271 
L 253.151246 96.243847 
L 253.139812 95.683424 
L 253.125892 95.123001 
L 253.109699 94.562577 
L 253.091951 94.002154 
L 253.073941 93.44173 
L 253.057412 92.881307 
L 253.044173 92.320884 
L 253.035571 91.76046 
L 253.032019 91.200037 
L 253.0328 90.639613 
L 253.036206 90.07919 
L 253.040013 89.518767 
L 253.042135 88.958343 
L 253.041267 88.39792 
L 253.037292 87.837496 
L 253.031206 87.277073 
L 253.024489 86.716649 
L 253.018066 86.156226 
L 253.011284 85.595803 
L 253.00143 85.035379 
L 252.984149 84.474956 
L 252.954767 83.914532 
L 252.910092 83.354109 
L 252.850016 82.793686 
L 252.778176 82.233262 
L 252.701274 81.672839 
L 252.627127 81.112415 
L 252.562099 80.551992 
L 252.508929 79.991569 
L 252.465826 79.431145 
L 252.427204 78.870722 
L 252.385697 78.310298 
L 252.33461 77.749875 
L 252.26989 77.189452 
L 252.191006 76.629028 
L 252.100642 76.068605 
L 252.00348 75.508181 
L 251.904559 74.947758 
L 251.807703 74.387335 
L 251.714416 73.826911 
L 251.623453 73.266488 
L 251.531161 72.706064 
L 251.43245 72.145641 
L 251.322084 71.585217 
L 251.195785 71.024794 
L 251.050701 70.464371 
L 250.884989 69.903947 
L 250.696832 69.343524 
L 250.483638 68.7831 
L 250.242299 68.222677 
L 249.97089 67.662254 
L 249.671194 67.10183 
L 249.350562 66.541407 
L 249.02151 65.980983 
L 248.69846 65.42056 
L 248.392711 64.860137 
L 248.108051 64.299713 
L 247.839396 63.73929 
L 247.575364 63.178866 
L 247.303517 62.618443 
L 247.015624 62.05802 
L 246.710436 61.497596 
L 246.393053 60.937173 
L 246.07193 60.376749 
L 245.755811 59.816326 
L 245.452895 59.255903 
L 245.173281 58.695479 
L 244.93391 58.135056 
L 244.763432 57.574632 
L 244.703541 57.014209 
L 244.804017 56.453785 
L 245.111054 55.893362 
L 245.651764 55.332939 
L 246.420447 54.772515 
L 247.372707 54.212092 
L 248.431048 53.651668 
L 258.063114 53.651668 
L 258.063114 53.651668 
L 259.121455 54.212092 
L 260.073716 54.772515 
L 260.842399 55.332939 
L 261.383109 55.893362 
L 261.690146 56.453785 
L 261.790622 57.014209 
L 261.730731 57.574632 
L 261.560253 58.135056 
L 261.320882 58.695479 
L 261.041268 59.255903 
L 260.738352 59.816326 
L 260.422233 60.376749 
L 260.101109 60.937173 
L 259.783727 61.497596 
L 259.478539 62.05802 
L 259.190646 62.618443 
L 258.918799 63.178866 
L 258.654766 63.73929 
L 258.386112 64.299713 
L 258.101452 64.860137 
L 257.795703 65.42056 
L 257.472653 65.980983 
L 257.143601 66.541407 
L 256.822969 67.10183 
L 256.523273 67.662254 
L 256.251864 68.222677 
L 256.010524 68.7831 
L 255.79733 69.343524 
L 255.609174 69.903947 
L 255.443462 70.464371 
L 255.298377 71.024794 
L 255.172079 71.585217 
L 255.061713 72.145641 
L 254.963002 72.706064 
L 254.87071 73.266488 
L 254.779747 73.826911 
L 254.686459 74.387335 
L 254.589604 74.947758 
L 254.490682 75.508181 
L 254.39352 76.068605 
L 254.303157 76.629028 
L 254.224273 77.189452 
L 254.159552 77.749875 
L 254.108466 78.310298 
L 254.066959 78.870722 
L 254.028337 79.431145 
L 253.985234 79.991569 
L 253.932064 80.551992 
L 253.867036 81.112415 
L 253.792888 81.672839 
L 253.715987 82.233262 
L 253.644147 82.793686 
L 253.58407 83.354109 
L 253.539396 83.914532 
L 253.510013 84.474956 
L 253.492733 85.035379 
L 253.482879 85.595803 
L 253.476097 86.156226 
L 253.469674 86.716649 
L 253.462957 87.277073 
L 253.456871 87.837496 
L 253.452896 88.39792 
L 253.452028 88.958343 
L 253.454149 89.518767 
L 253.457957 90.07919 
L 253.461363 90.639613 
L 253.462144 91.200037 
L 253.458592 91.76046 
L 253.449989 92.320884 
L 253.436751 92.881307 
L 253.420222 93.44173 
L 253.402212 94.002154 
L 253.384463 94.562577 
L 253.368271 95.123001 
L 253.354351 95.683424 
L 253.342917 96.243847 
L 253.333845 96.804271 
L 253.326797 97.364694 
L 253.321293 97.925118 
L 253.316764 98.485541 
L 253.312648 99.045964 
L 253.308527 99.606388 
L 253.304218 100.166811 
L 253.299774 100.727235 
L 253.295354 101.287658 
L 253.291063 101.848081 
L 253.286854 102.408505 
L 253.28257 102.968928 
L 253.278098 103.529352 
L 253.273529 104.089775 
L 253.269226 104.650199 
L 253.26574 105.210622 
L 253.263616 105.771045 
L 253.263169 106.331469 
L 253.264323 106.891892 
L 253.266581 107.452316 
L 253.269128 108.012739 
L 253.271063 108.573162 
L 253.271659 109.133586 
z
" style="fill:#1f77b4;fill-opacity:0.3;"/>
   </g>
   <g id="PolyCollection_7">
    <path clip-path="url(#p71934dab7f)" d="M 287.444219 95.133389 
L 287.398269 95.133389 
L 287.399143 94.713555 
L 287.40157 94.293722 
L 287.404908 93.873888 
L 287.408302 93.454054 
L 287.410879 93.034221 
L 287.411891 92.614387 
L 287.410773 92.194553 
L 287.40717 91.77472 
L 287.400983 91.354886 
L 287.39246 90.935052 
L 287.382281 90.515218 
L 287.371556 90.095385 
L 287.361665 89.675551 
L 287.35394 89.255717 
L 287.349288 88.835884 
L 287.347902 88.41605 
L 287.349183 87.996216 
L 287.351911 87.576383 
L 287.354595 87.156549 
L 287.355881 86.736715 
L 287.354885 86.316881 
L 287.351381 85.897048 
L 287.345791 85.477214 
L 287.338955 85.05738 
L 287.331714 84.637547 
L 287.324455 84.217713 
L 287.316837 83.797879 
L 287.30789 83.378046 
L 287.296523 82.958212 
L 287.282209 82.538378 
L 287.265531 82.118545 
L 287.248278 81.698711 
L 287.233034 81.278877 
L 287.222415 80.859043 
L 287.218289 80.43921 
L 287.221246 80.019376 
L 287.230459 79.599542 
L 287.243873 79.179709 
L 287.258559 78.759875 
L 287.271112 78.340041 
L 287.278019 77.920208 
L 287.276022 77.500374 
L 287.262522 77.08054 
L 287.236037 76.660706 
L 287.196666 76.240873 
L 287.146411 75.821039 
L 287.089104 75.401205 
L 287.029744 74.981372 
L 286.97322 74.561538 
L 286.922819 74.141704 
L 286.879167 73.721871 
L 286.840187 73.302037 
L 286.802173 72.882203 
L 286.761401 72.462369 
L 286.715442 72.042536 
L 286.663586 71.622702 
L 286.606414 71.202868 
L 286.544999 70.783035 
L 286.480224 70.363201 
L 286.412403 69.943367 
L 286.341135 69.523534 
L 286.265364 69.1037 
L 286.183691 68.683866 
L 286.09495 68.264032 
L 285.998752 67.844199 
L 285.895601 67.424365 
L 285.786388 67.004531 
L 285.671538 66.584698 
L 285.550305 66.164864 
L 285.420536 65.74503 
L 285.278759 65.325197 
L 285.120358 64.905363 
L 284.939878 64.485529 
L 284.731887 64.065695 
L 284.492678 63.645862 
L 284.22237 63.226028 
L 283.926226 62.806194 
L 283.613959 62.386361 
L 283.296783 61.966527 
L 282.98335 61.546693 
L 282.676608 61.12686 
L 282.373293 60.707026 
L 282.066321 60.287192 
L 281.748635 59.867358 
L 281.416281 59.447525 
L 281.069176 59.027691 
L 280.709851 58.607857 
L 280.342112 58.188024 
L 279.971811 57.76819 
L 279.610511 57.348356 
L 279.280671 56.928523 
L 279.0194 56.508689 
L 278.877703 56.088855 
L 278.913372 55.669022 
L 279.177906 55.249188 
L 279.700463 54.829354 
L 280.474015 54.40952 
L 281.449574 53.989687 
L 282.542343 53.569853 
L 292.300145 53.569853 
L 292.300145 53.569853 
L 293.392914 53.989687 
L 294.368473 54.40952 
L 295.142025 54.829354 
L 295.664582 55.249188 
L 295.929116 55.669022 
L 295.964785 56.088855 
L 295.823088 56.508689 
L 295.561817 56.928523 
L 295.231977 57.348356 
L 294.870677 57.76819 
L 294.500376 58.188024 
L 294.132637 58.607857 
L 293.773312 59.027691 
L 293.426207 59.447525 
L 293.093853 59.867358 
L 292.776167 60.287192 
L 292.469195 60.707026 
L 292.16588 61.12686 
L 291.859138 61.546693 
L 291.545705 61.966527 
L 291.228529 62.386361 
L 290.916262 62.806194 
L 290.620118 63.226028 
L 290.34981 63.645862 
L 290.110601 64.065695 
L 289.90261 64.485529 
L 289.72213 64.905363 
L 289.563729 65.325197 
L 289.421952 65.74503 
L 289.292183 66.164864 
L 289.17095 66.584698 
L 289.0561 67.004531 
L 288.946887 67.424365 
L 288.843737 67.844199 
L 288.747539 68.264032 
L 288.658797 68.683866 
L 288.577124 69.1037 
L 288.501353 69.523534 
L 288.430085 69.943367 
L 288.362264 70.363201 
L 288.297489 70.783035 
L 288.236074 71.202868 
L 288.178902 71.622702 
L 288.127046 72.042536 
L 288.081087 72.462369 
L 288.040315 72.882203 
L 288.002301 73.302037 
L 287.963321 73.721871 
L 287.919669 74.141704 
L 287.869268 74.561538 
L 287.812744 74.981372 
L 287.753384 75.401205 
L 287.696077 75.821039 
L 287.645822 76.240873 
L 287.606452 76.660706 
L 287.579966 77.08054 
L 287.566466 77.500374 
L 287.564469 77.920208 
L 287.571376 78.340041 
L 287.583929 78.759875 
L 287.598615 79.179709 
L 287.612029 79.599542 
L 287.621242 80.019376 
L 287.624199 80.43921 
L 287.620073 80.859043 
L 287.609454 81.278877 
L 287.59421 81.698711 
L 287.576957 82.118545 
L 287.560279 82.538378 
L 287.545965 82.958212 
L 287.534598 83.378046 
L 287.525651 83.797879 
L 287.518033 84.217713 
L 287.510774 84.637547 
L 287.503533 85.05738 
L 287.496697 85.477214 
L 287.491108 85.897048 
L 287.487603 86.316881 
L 287.486607 86.736715 
L 287.487893 87.156549 
L 287.490577 87.576383 
L 287.493305 87.996216 
L 287.494586 88.41605 
L 287.493201 88.835884 
L 287.488548 89.255717 
L 287.480823 89.675551 
L 287.470932 90.095385 
L 287.460207 90.515218 
L 287.450028 90.935052 
L 287.441505 91.354886 
L 287.435318 91.77472 
L 287.431715 92.194553 
L 287.430597 92.614387 
L 287.431609 93.034221 
L 287.434186 93.454054 
L 287.43758 93.873888 
L 287.440918 94.293722 
L 287.443345 94.713555 
L 287.444219 95.133389 
z
" style="fill:#1f77b4;fill-opacity:0.3;"/>
   </g>
   <g id="PolyCollection_8">
    <path clip-path="url(#p71934dab7f)" d="M 321.632249 82.98253 
L 321.558564 82.98253 
L 321.552681 82.685413 
L 321.547661 82.388297 
L 321.54406 82.091181 
L 321.542439 81.794064 
L 321.543158 81.496948 
L 321.546108 81.199831 
L 321.550528 80.902715 
L 321.555054 80.605598 
L 321.558017 80.308482 
L 321.557921 80.011365 
L 321.553933 79.714249 
L 321.546216 79.417132 
L 321.535987 79.120016 
L 321.525242 78.822899 
L 321.516211 78.525783 
L 321.510717 78.228666 
L 321.509643 77.93155 
L 321.512727 77.634434 
L 321.518737 77.337317 
L 321.525936 77.040201 
L 321.532622 76.743084 
L 321.537528 76.445968 
L 321.539985 76.148851 
L 321.539881 75.851735 
L 321.537529 75.554618 
L 321.533548 75.257502 
L 321.528773 74.960385 
L 321.52416 74.663269 
L 321.520639 74.366152 
L 321.518892 74.069036 
L 321.519118 73.77192 
L 321.520861 73.474803 
L 321.522965 73.177687 
L 321.523722 72.88057 
L 321.521199 72.583454 
L 321.513684 72.286337 
L 321.500119 71.989221 
L 321.480366 71.692104 
L 321.455192 71.394988 
L 321.425955 71.097871 
L 321.394169 70.800755 
L 321.361115 70.503638 
L 321.327719 70.206522 
L 321.294671 69.909406 
L 321.262664 69.612289 
L 321.232504 69.315173 
L 321.204913 69.018056 
L 321.180043 68.72094 
L 321.156891 68.423823 
L 321.132992 68.126707 
L 321.104677 67.82959 
L 321.068014 67.532474 
L 321.02017 67.235357 
L 320.96069 66.938241 
L 320.892118 66.641124 
L 320.819589 66.344008 
L 320.749429 66.046891 
L 320.687215 65.749775 
L 320.636013 65.452659 
L 320.595448 65.155542 
L 320.561936 64.858426 
L 320.529883 64.561309 
L 320.493285 64.264193 
L 320.447049 63.967076 
L 320.38762 63.66996 
L 320.312926 63.372843 
L 320.221994 63.075727 
L 320.114651 62.77861 
L 319.991524 62.481494 
L 319.854195 62.184377 
L 319.705161 61.887261 
L 319.547296 61.590145 
L 319.382789 61.293028 
L 319.211977 60.995912 
L 319.032606 60.698795 
L 318.839904 60.401679 
L 318.627437 60.104562 
L 318.388362 59.807446 
L 318.11676 59.510329 
L 317.808934 59.213213 
L 317.464739 58.916096 
L 317.088795 58.61898 
L 316.690884 58.321863 
L 316.284611 58.024747 
L 315.88389 57.72763 
L 315.498135 57.430514 
L 315.128465 57.133398 
L 314.767633 56.836281 
L 314.405164 56.539165 
L 314.036665 56.242048 
L 313.673771 55.944932 
L 313.350239 55.647815 
L 313.120797 55.350699 
L 313.051866 55.053582 
L 313.206005 54.756466 
L 313.624106 54.459349 
L 314.310505 54.162233 
L 315.226118 53.865116 
L 316.29291 53.568 
L 326.897903 53.568 
L 326.897903 53.568 
L 327.964695 53.865116 
L 328.880309 54.162233 
L 329.566707 54.459349 
L 329.984808 54.756466 
L 330.138947 55.053582 
L 330.070016 55.350699 
L 329.840574 55.647815 
L 329.517042 55.944932 
L 329.154149 56.242048 
L 328.78565 56.539165 
L 328.42318 56.836281 
L 328.062348 57.133398 
L 327.692679 57.430514 
L 327.306924 57.72763 
L 326.906202 58.024747 
L 326.499929 58.321863 
L 326.102019 58.61898 
L 325.726074 58.916096 
L 325.38188 59.213213 
L 325.074053 59.510329 
L 324.802452 59.807446 
L 324.563377 60.104562 
L 324.350909 60.401679 
L 324.158208 60.698795 
L 323.978837 60.995912 
L 323.808025 61.293028 
L 323.643518 61.590145 
L 323.485652 61.887261 
L 323.336619 62.184377 
L 323.199289 62.481494 
L 323.076162 62.77861 
L 322.96882 63.075727 
L 322.877887 63.372843 
L 322.803194 63.66996 
L 322.743765 63.967076 
L 322.697529 64.264193 
L 322.660931 64.561309 
L 322.628877 64.858426 
L 322.595365 65.155542 
L 322.554801 65.452659 
L 322.503598 65.749775 
L 322.441385 66.046891 
L 322.371224 66.344008 
L 322.298695 66.641124 
L 322.230123 66.938241 
L 322.170643 67.235357 
L 322.122799 67.532474 
L 322.086137 67.82959 
L 322.057822 68.126707 
L 322.033922 68.423823 
L 322.01077 68.72094 
L 321.9859 69.018056 
L 321.95831 69.315173 
L 321.928149 69.612289 
L 321.896142 69.909406 
L 321.863094 70.206522 
L 321.829698 70.503638 
L 321.796645 70.800755 
L 321.764858 71.097871 
L 321.735622 71.394988 
L 321.710447 71.692104 
L 321.690695 71.989221 
L 321.67713 72.286337 
L 321.669614 72.583454 
L 321.667091 72.88057 
L 321.667848 73.177687 
L 321.669952 73.474803 
L 321.671695 73.77192 
L 321.671922 74.069036 
L 321.670174 74.366152 
L 321.666653 74.663269 
L 321.662041 74.960385 
L 321.657265 75.257502 
L 321.653284 75.554618 
L 321.650932 75.851735 
L 321.650828 76.148851 
L 321.653285 76.445968 
L 321.658192 76.743084 
L 321.664878 77.040201 
L 321.672077 77.337317 
L 321.678086 77.634434 
L 321.68117 77.93155 
L 321.680097 78.228666 
L 321.674602 78.525783 
L 321.665572 78.822899 
L 321.654826 79.120016 
L 321.644597 79.417132 
L 321.63688 79.714249 
L 321.632892 80.011365 
L 321.632796 80.308482 
L 321.635759 80.605598 
L 321.640286 80.902715 
L 321.644706 81.199831 
L 321.647655 81.496948 
L 321.648374 81.794064 
L 321.646754 82.091181 
L 321.643152 82.388297 
L 321.638132 82.685413 
L 321.632249 82.98253 
z
" style="fill:#1f77b4;fill-opacity:0.3;"/>
   </g>
   <g id="PolyCollection_9">
    <path clip-path="url(#p71934dab7f)" d="M 355.82574 74.651824 
L 355.713399 74.651824 
L 355.704621 74.438856 
L 355.698561 74.225888 
L 355.696052 74.01292 
L 355.697243 73.799952 
L 355.701447 73.586984 
L 355.707224 73.374017 
L 355.7127 73.161049 
L 355.716068 72.948081 
L 355.716105 72.735113 
L 355.712571 72.522145 
L 355.706321 72.309177 
L 355.699106 72.096209 
L 355.69307 71.883241 
L 355.69011 71.670273 
L 355.691296 71.457305 
L 355.696561 71.244337 
L 355.70477 71.031369 
L 355.714149 70.818402 
L 355.722875 70.605434 
L 355.729602 70.392466 
L 355.733724 70.179498 
L 355.735334 69.96653 
L 355.734957 69.753562 
L 355.73325 69.540594 
L 355.730811 69.327626 
L 355.728146 69.114658 
L 355.725725 68.90169 
L 355.724004 68.688722 
L 355.723333 68.475754 
L 355.723765 68.262786 
L 355.72487 68.049819 
L 355.725705 67.836851 
L 355.72499 67.623883 
L 355.721444 67.410915 
L 355.71416 67.197947 
L 355.702846 66.984979 
L 355.687834 66.772011 
L 355.669865 66.559043 
L 355.649763 66.346075 
L 355.628151 66.133107 
L 355.605319 65.920139 
L 355.581298 65.707171 
L 355.556068 65.494204 
L 355.529794 65.281236 
L 355.502954 65.068268 
L 355.476272 64.8553 
L 355.450451 64.642332 
L 355.425799 64.429364 
L 355.401908 64.216396 
L 355.377571 64.003428 
L 355.351016 63.79046 
L 355.320366 63.577492 
L 355.284124 63.364524 
L 355.241428 63.151556 
L 355.191987 62.938588 
L 355.135822 62.725621 
L 355.073112 62.512653 
L 355.004363 62.299685 
L 354.930836 62.086717 
L 354.854858 61.873749 
L 354.779632 61.660781 
L 354.708435 61.447813 
L 354.643547 61.234845 
L 354.585455 61.021877 
L 354.532708 60.808909 
L 354.482397 60.595941 
L 354.430941 60.382973 
L 354.374822 60.170006 
L 354.311114 59.957038 
L 354.237802 59.74407 
L 354.153917 59.531102 
L 354.059372 59.318134 
L 353.954406 59.105166 
L 353.838666 58.892198 
L 353.710212 58.67923 
L 353.564845 58.466262 
L 353.396079 58.253294 
L 353.195887 58.040326 
L 352.956097 57.827358 
L 352.670185 57.61439 
L 352.335135 57.401423 
L 351.952921 57.188455 
L 351.531067 56.975487 
L 351.081795 56.762519 
L 350.619645 56.549551 
L 350.158094 56.336583 
L 349.706391 56.123615 
L 349.268058 55.910647 
L 348.842204 55.697679 
L 348.427916 55.484711 
L 348.030908 55.271743 
L 347.670483 55.058775 
L 347.384034 54.845808 
L 347.226029 54.63284 
L 347.259349 54.419872 
L 347.539383 54.206904 
L 348.094857 53.993936 
L 348.912398 53.780968 
L 349.932023 53.568 
L 361.607115 53.568 
L 361.607115 53.568 
L 362.626741 53.780968 
L 363.444281 53.993936 
L 363.999755 54.206904 
L 364.279789 54.419872 
L 364.31311 54.63284 
L 364.155105 54.845808 
L 363.868656 55.058775 
L 363.50823 55.271743 
L 363.111222 55.484711 
L 362.696935 55.697679 
L 362.271081 55.910647 
L 361.832748 56.123615 
L 361.381045 56.336583 
L 360.919494 56.549551 
L 360.457344 56.762519 
L 360.008072 56.975487 
L 359.586218 57.188455 
L 359.204004 57.401423 
L 358.868954 57.61439 
L 358.583041 57.827358 
L 358.343251 58.040326 
L 358.14306 58.253294 
L 357.974294 58.466262 
L 357.828926 58.67923 
L 357.700473 58.892198 
L 357.584733 59.105166 
L 357.479767 59.318134 
L 357.385222 59.531102 
L 357.301337 59.74407 
L 357.228025 59.957038 
L 357.164316 60.170006 
L 357.108198 60.382973 
L 357.056742 60.595941 
L 357.006431 60.808909 
L 356.953683 61.021877 
L 356.895592 61.234845 
L 356.830704 61.447813 
L 356.759506 61.660781 
L 356.68428 61.873749 
L 356.608303 62.086717 
L 356.534776 62.299685 
L 356.466027 62.512653 
L 356.403317 62.725621 
L 356.347152 62.938588 
L 356.297711 63.151556 
L 356.255015 63.364524 
L 356.218773 63.577492 
L 356.188122 63.79046 
L 356.161567 64.003428 
L 356.137231 64.216396 
L 356.113339 64.429364 
L 356.088687 64.642332 
L 356.062867 64.8553 
L 356.036185 65.068268 
L 356.009345 65.281236 
L 355.983071 65.494204 
L 355.957841 65.707171 
L 355.93382 65.920139 
L 355.910988 66.133107 
L 355.889375 66.346075 
L 355.869274 66.559043 
L 355.851305 66.772011 
L 355.836293 66.984979 
L 355.824979 67.197947 
L 355.817695 67.410915 
L 355.814149 67.623883 
L 355.813433 67.836851 
L 355.814269 68.049819 
L 355.815374 68.262786 
L 355.815805 68.475754 
L 355.815135 68.688722 
L 355.813414 68.90169 
L 355.810992 69.114658 
L 355.808327 69.327626 
L 355.805889 69.540594 
L 355.804182 69.753562 
L 355.803805 69.96653 
L 355.805415 70.179498 
L 355.809537 70.392466 
L 355.816263 70.605434 
L 355.824989 70.818402 
L 355.834369 71.031369 
L 355.842578 71.244337 
L 355.847842 71.457305 
L 355.849029 71.670273 
L 355.846069 71.883241 
L 355.840033 72.096209 
L 355.832818 72.309177 
L 355.826568 72.522145 
L 355.823033 72.735113 
L 355.823071 72.948081 
L 355.826439 73.161049 
L 355.831915 73.374017 
L 355.837692 73.586984 
L 355.841896 73.799952 
L 355.843087 74.01292 
L 355.840578 74.225888 
L 355.834518 74.438856 
L 355.82574 74.651824 
z
" style="fill:#1f77b4;fill-opacity:0.3;"/>
   </g>
   <g id="PolyCollection_10">
    <path clip-path="url(#p71934dab7f)" d="M 389.984994 68.783684 
L 389.902471 68.783684 
L 389.897973 68.62999 
L 389.895237 68.476296 
L 389.89401 68.322603 
L 389.893691 68.168909 
L 389.893552 68.015215 
L 389.892964 67.861521 
L 389.891566 67.707828 
L 389.889347 67.554134 
L 389.886647 67.40044 
L 389.884072 67.246746 
L 389.8823 67.093052 
L 389.881829 66.939359 
L 389.882731 66.785665 
L 389.88457 66.631971 
L 389.886567 66.478277 
L 389.887966 66.324584 
L 389.888416 66.17089 
L 389.888168 66.017196 
L 389.887954 65.863502 
L 389.888651 65.709808 
L 389.890902 65.556115 
L 389.894894 65.402421 
L 389.900338 65.248727 
L 389.906589 65.095033 
L 389.912803 64.94134 
L 389.918077 64.787646 
L 389.92157 64.633952 
L 389.92263 64.480258 
L 389.920924 64.326564 
L 389.916542 64.172871 
L 389.910014 64.019177 
L 389.902225 63.865483 
L 389.894208 63.711789 
L 389.886848 63.558096 
L 389.880587 63.404402 
L 389.875237 63.250708 
L 389.870033 63.097014 
L 389.863942 62.94332 
L 389.856111 62.789627 
L 389.846235 62.635933 
L 389.834642 62.482239 
L 389.822038 62.328545 
L 389.809093 62.174852 
L 389.796094 62.021158 
L 389.782854 61.867464 
L 389.768833 61.71377 
L 389.753343 61.560076 
L 389.735664 61.406383 
L 389.715049 61.252689 
L 389.690689 61.098995 
L 389.661793 60.945301 
L 389.627855 60.791608 
L 389.589026 60.637914 
L 389.546353 60.48422 
L 389.501593 60.330526 
L 389.456489 60.176832 
L 389.411747 60.023139 
L 389.366246 59.869445 
L 389.317054 59.715751 
L 389.260462 59.562057 
L 389.193664 59.408364 
L 389.116259 59.25467 
L 389.030784 59.100976 
L 388.942011 58.947282 
L 388.855413 58.793588 
L 388.775632 58.639895 
L 388.705602 58.486201 
L 388.646464 58.332507 
L 388.597897 58.178813 
L 388.558392 58.02512 
L 388.525282 57.871426 
L 388.494623 57.717732 
L 388.46118 57.564038 
L 388.4186 57.410344 
L 388.359708 57.256651 
L 388.276829 57.102957 
L 388.162122 56.949263 
L 388.008 56.795569 
L 387.80775 56.641876 
L 387.556429 56.488182 
L 387.252021 56.334488 
L 386.896621 56.180794 
L 386.497086 56.0271 
L 386.064491 55.873407 
L 385.612035 55.719713 
L 385.151813 55.566019 
L 384.691607 55.412325 
L 384.233132 55.258632 
L 383.772848 55.104938 
L 383.305659 54.951244 
L 382.831112 54.79755 
L 382.361011 54.643856 
L 381.92653 54.490163 
L 381.581809 54.336469 
L 381.400191 54.182775 
L 381.460366 54.029081 
L 381.823547 53.875388 
L 382.508573 53.721694 
L 383.47585 53.568 
L 396.411614 53.568 
L 396.411614 53.568 
L 397.378891 53.721694 
L 398.063917 53.875388 
L 398.427098 54.029081 
L 398.487273 54.182775 
L 398.305655 54.336469 
L 397.960934 54.490163 
L 397.526453 54.643856 
L 397.056352 54.79755 
L 396.581805 54.951244 
L 396.114616 55.104938 
L 395.654332 55.258632 
L 395.195858 55.412325 
L 394.735651 55.566019 
L 394.275429 55.719713 
L 393.822973 55.873407 
L 393.390378 56.0271 
L 392.990843 56.180794 
L 392.635443 56.334488 
L 392.331035 56.488182 
L 392.079714 56.641876 
L 391.879464 56.795569 
L 391.725342 56.949263 
L 391.610635 57.102957 
L 391.527756 57.256651 
L 391.468864 57.410344 
L 391.426284 57.564038 
L 391.392841 57.717732 
L 391.362182 57.871426 
L 391.329072 58.02512 
L 391.289567 58.178813 
L 391.241 58.332507 
L 391.181862 58.486201 
L 391.111832 58.639895 
L 391.032051 58.793588 
L 390.945453 58.947282 
L 390.85668 59.100976 
L 390.771205 59.25467 
L 390.6938 59.408364 
L 390.627002 59.562057 
L 390.57041 59.715751 
L 390.521218 59.869445 
L 390.475717 60.023139 
L 390.430975 60.176832 
L 390.385872 60.330526 
L 390.341111 60.48422 
L 390.298438 60.637914 
L 390.259609 60.791608 
L 390.225671 60.945301 
L 390.196776 61.098995 
L 390.172415 61.252689 
L 390.1518 61.406383 
L 390.134121 61.560076 
L 390.118631 61.71377 
L 390.104611 61.867464 
L 390.09137 62.021158 
L 390.078372 62.174852 
L 390.065426 62.328545 
L 390.052822 62.482239 
L 390.041229 62.635933 
L 390.031354 62.789627 
L 390.023522 62.94332 
L 390.017431 63.097014 
L 390.012228 63.250708 
L 390.006877 63.404402 
L 390.000616 63.558096 
L 389.993256 63.711789 
L 389.985239 63.865483 
L 389.97745 64.019177 
L 389.970922 64.172871 
L 389.96654 64.326564 
L 389.964834 64.480258 
L 389.965894 64.633952 
L 389.969387 64.787646 
L 389.974661 64.94134 
L 389.980876 65.095033 
L 389.987126 65.248727 
L 389.992571 65.402421 
L 389.996563 65.556115 
L 389.998813 65.709808 
L 389.99951 65.863502 
L 389.999296 66.017196 
L 389.999048 66.17089 
L 389.999498 66.324584 
L 390.000897 66.478277 
L 390.002894 66.631971 
L 390.004733 66.785665 
L 390.005635 66.939359 
L 390.005164 67.093052 
L 390.003393 67.246746 
L 390.000817 67.40044 
L 389.998117 67.554134 
L 389.995898 67.707828 
L 389.9945 67.861521 
L 389.993912 68.015215 
L 389.993773 68.168909 
L 389.993454 68.322603 
L 389.992227 68.476296 
L 389.989491 68.62999 
L 389.984994 68.783684 
z
" style="fill:#1f77b4;fill-opacity:0.3;"/>
   </g>
   <g id="PathCollection_1">
    <defs>
     <path d="M 0 3 
C 0.795609 3 1.55874 2.683901 2.12132 2.12132 
C 2.683901 1.55874 3 0.795609 3 0 
C 3 -0.795609 2.683901 -1.55874 2.12132 -2.12132 
C 1.55874 -2.683901 0.795609 -3 0 -3 
C -0.795609 -3 -1.55874 -2.683901 -2.12132 -2.12132 
C -2.683901 -1.55874 -3 -0.795609 -3 0 
C -3 0.795609 -2.683901 1.55874 -2.12132 2.12132 
C -1.55874 2.683901 -0.795609 3 0 3 
z
" id="m0e8e686748" style="stroke:#ff0000;"/>
    </defs>
    <g clip-path="url(#p71934dab7f)">
     <use style="fill:#ff0000;stroke:#ff0000;" x="253.247081" xlink:href="#m0e8e686748" y="76.935854"/>
    </g>
   </g>
   <g id="matplotlib.axis_1">
    <g id="xtick_1">
     <g id="line2d_1">
      <defs>
       <path d="M 0 0 
L 0 3.5 
" id="m9191f70b7d" style="stroke:#000000;stroke-width:0.8;"/>
      </defs>
      <g>
       <use style="stroke:#000000;stroke-width:0.8;" x="116.550431" xlink:href="#m9191f70b7d" y="307.584"/>
      </g>
     </g>
     <g id="text_1">
      <!-- 2 -->
      <defs>
       <path d="M 19.1875 8.296875 
L 53.609375 8.296875 
L 53.609375 0 
L 7.328125 0 
L 7.328125 8.296875 
Q 12.9375 14.109375 22.625 23.890625 
Q 32.328125 33.6875 34.8125 36.53125 
Q 39.546875 41.84375 41.421875 45.53125 
Q 43.3125 49.21875 43.3125 52.78125 
Q 43.3125 58.59375 39.234375 62.25 
Q 35.15625 65.921875 28.609375 65.921875 
Q 23.96875 65.921875 18.8125 64.3125 
Q 13.671875 62.703125 7.8125 59.421875 
L 7.8125 69.390625 
Q 13.765625 71.78125 18.9375 73 
Q 24.125 74.21875 28.421875 74.21875 
Q 39.75 74.21875 46.484375 68.546875 
Q 53.21875 62.890625 53.21875 53.421875 
Q 53.21875 48.921875 51.53125 44.890625 
Q 49.859375 40.875 45.40625 35.40625 
Q 44.1875 33.984375 37.640625 27.21875 
Q 31.109375 20.453125 19.1875 8.296875 
z
" id="DejaVuSans-32"/>
      </defs>
      <g transform="translate(113.369181 322.182437)scale(0.1 -0.1)">
       <use xlink:href="#DejaVuSans-32"/>
      </g>
     </g>
    </g>
    <g id="xtick_2">
     <g id="line2d_2">
      <g>
       <use style="stroke:#000000;stroke-width:0.8;" x="184.898756" xlink:href="#m9191f70b7d" y="307.584"/>
      </g>
     </g>
     <g id="text_2">
      <!-- 4 -->
      <defs>
       <path d="M 37.796875 64.3125 
L 12.890625 25.390625 
L 37.796875 25.390625 
z
M 35.203125 72.90625 
L 47.609375 72.90625 
L 47.609375 25.390625 
L 58.015625 25.390625 
L 58.015625 17.1875 
L 47.609375 17.1875 
L 47.609375 0 
L 37.796875 0 
L 37.796875 17.1875 
L 4.890625 17.1875 
L 4.890625 26.703125 
z
" id="DejaVuSans-34"/>
      </defs>
      <g transform="translate(181.717506 322.182437)scale(0.1 -0.1)">
       <use xlink:href="#DejaVuSans-34"/>
      </g>
     </g>
    </g>
    <g id="xtick_3">
     <g id="line2d_3">
      <g>
       <use style="stroke:#000000;stroke-width:0.8;" x="253.247081" xlink:href="#m9191f70b7d" y="307.584"/>
      </g>
     </g>
     <g id="text_3">
      <!-- 6 -->
      <defs>
       <path d="M 33.015625 40.375 
Q 26.375 40.375 22.484375 35.828125 
Q 18.609375 31.296875 18.609375 23.390625 
Q 18.609375 15.53125 22.484375 10.953125 
Q 26.375 6.390625 33.015625 6.390625 
Q 39.65625 6.390625 43.53125 10.953125 
Q 47.40625 15.53125 47.40625 23.390625 
Q 47.40625 31.296875 43.53125 35.828125 
Q 39.65625 40.375 33.015625 40.375 
z
M 52.59375 71.296875 
L 52.59375 62.3125 
Q 48.875 64.0625 45.09375 64.984375 
Q 41.3125 65.921875 37.59375 65.921875 
Q 27.828125 65.921875 22.671875 59.328125 
Q 17.53125 52.734375 16.796875 39.40625 
Q 19.671875 43.65625 24.015625 45.921875 
Q 28.375 48.1875 33.59375 48.1875 
Q 44.578125 48.1875 50.953125 41.515625 
Q 57.328125 34.859375 57.328125 23.390625 
Q 57.328125 12.15625 50.6875 5.359375 
Q 44.046875 -1.421875 33.015625 -1.421875 
Q 20.359375 -1.421875 13.671875 8.265625 
Q 6.984375 17.96875 6.984375 36.375 
Q 6.984375 53.65625 15.1875 63.9375 
Q 23.390625 74.21875 37.203125 74.21875 
Q 40.921875 74.21875 44.703125 73.484375 
Q 48.484375 72.75 52.59375 71.296875 
z
" id="DejaVuSans-36"/>
      </defs>
      <g transform="translate(250.065831 322.182437)scale(0.1 -0.1)">
       <use xlink:href="#DejaVuSans-36"/>
      </g>
     </g>
    </g>
    <g id="xtick_4">
     <g id="line2d_4">
      <g>
       <use style="stroke:#000000;stroke-width:0.8;" x="321.595407" xlink:href="#m9191f70b7d" y="307.584"/>
      </g>
     </g>
     <g id="text_4">
      <!-- 8 -->
      <defs>
       <path d="M 31.78125 34.625 
Q 24.75 34.625 20.71875 30.859375 
Q 16.703125 27.09375 16.703125 20.515625 
Q 16.703125 13.921875 20.71875 10.15625 
Q 24.75 6.390625 31.78125 6.390625 
Q 38.8125 6.390625 42.859375 10.171875 
Q 46.921875 13.96875 46.921875 20.515625 
Q 46.921875 27.09375 42.890625 30.859375 
Q 38.875 34.625 31.78125 34.625 
z
M 21.921875 38.8125 
Q 15.578125 40.375 12.03125 44.71875 
Q 8.5 49.078125 8.5 55.328125 
Q 8.5 64.0625 14.71875 69.140625 
Q 20.953125 74.21875 31.78125 74.21875 
Q 42.671875 74.21875 48.875 69.140625 
Q 55.078125 64.0625 55.078125 55.328125 
Q 55.078125 49.078125 51.53125 44.71875 
Q 48 40.375 41.703125 38.8125 
Q 48.828125 37.15625 52.796875 32.3125 
Q 56.78125 27.484375 56.78125 20.515625 
Q 56.78125 9.90625 50.3125 4.234375 
Q 43.84375 -1.421875 31.78125 -1.421875 
Q 19.734375 -1.421875 13.25 4.234375 
Q 6.78125 9.90625 6.78125 20.515625 
Q 6.78125 27.484375 10.78125 32.3125 
Q 14.796875 37.15625 21.921875 38.8125 
z
M 18.3125 54.390625 
Q 18.3125 48.734375 21.84375 45.5625 
Q 25.390625 42.390625 31.78125 42.390625 
Q 38.140625 42.390625 41.71875 45.5625 
Q 45.3125 48.734375 45.3125 54.390625 
Q 45.3125 60.0625 41.71875 63.234375 
Q 38.140625 66.40625 31.78125 66.40625 
Q 25.390625 66.40625 21.84375 63.234375 
Q 18.3125 60.0625 18.3125 54.390625 
z
" id="DejaVuSans-38"/>
      </defs>
      <g transform="translate(318.414157 322.182437)scale(0.1 -0.1)">
       <use xlink:href="#DejaVuSans-38"/>
      </g>
     </g>
    </g>
    <g id="xtick_5">
     <g id="line2d_5">
      <g>
       <use style="stroke:#000000;stroke-width:0.8;" x="389.943732" xlink:href="#m9191f70b7d" y="307.584"/>
      </g>
     </g>
     <g id="text_5">
      <!-- 10 -->
      <defs>
       <path d="M 12.40625 8.296875 
L 28.515625 8.296875 
L 28.515625 63.921875 
L 10.984375 60.40625 
L 10.984375 69.390625 
L 28.421875 72.90625 
L 38.28125 72.90625 
L 38.28125 8.296875 
L 54.390625 8.296875 
L 54.390625 0 
L 12.40625 0 
z
" id="DejaVuSans-31"/>
       <path d="M 31.78125 66.40625 
Q 24.171875 66.40625 20.328125 58.90625 
Q 16.5 51.421875 16.5 36.375 
Q 16.5 21.390625 20.328125 13.890625 
Q 24.171875 6.390625 31.78125 6.390625 
Q 39.453125 6.390625 43.28125 13.890625 
Q 47.125 21.390625 47.125 36.375 
Q 47.125 51.421875 43.28125 58.90625 
Q 39.453125 66.40625 31.78125 66.40625 
z
M 31.78125 74.21875 
Q 44.046875 74.21875 50.515625 64.515625 
Q 56.984375 54.828125 56.984375 36.375 
Q 56.984375 17.96875 50.515625 8.265625 
Q 44.046875 -1.421875 31.78125 -1.421875 
Q 19.53125 -1.421875 13.0625 8.265625 
Q 6.59375 17.96875 6.59375 36.375 
Q 6.59375 54.828125 13.0625 64.515625 
Q 19.53125 74.21875 31.78125 74.21875 
z
" id="DejaVuSans-30"/>
      </defs>
      <g transform="translate(383.581232 322.182437)scale(0.1 -0.1)">
       <use xlink:href="#DejaVuSans-31"/>
       <use x="63.623047" xlink:href="#DejaVuSans-30"/>
      </g>
     </g>
    </g>
    <g id="text_6">
     <!-- cutting dimension $d$ -->
     <defs>
      <path d="M 48.78125 52.59375 
L 48.78125 44.1875 
Q 44.96875 46.296875 41.140625 47.34375 
Q 37.3125 48.390625 33.40625 48.390625 
Q 24.65625 48.390625 19.8125 42.84375 
Q 14.984375 37.3125 14.984375 27.296875 
Q 14.984375 17.28125 19.8125 11.734375 
Q 24.65625 6.203125 33.40625 6.203125 
Q 37.3125 6.203125 41.140625 7.25 
Q 44.96875 8.296875 48.78125 10.40625 
L 48.78125 2.09375 
Q 45.015625 0.34375 40.984375 -0.53125 
Q 36.96875 -1.421875 32.421875 -1.421875 
Q 20.0625 -1.421875 12.78125 6.34375 
Q 5.515625 14.109375 5.515625 27.296875 
Q 5.515625 40.671875 12.859375 48.328125 
Q 20.21875 56 33.015625 56 
Q 37.15625 56 41.109375 55.140625 
Q 45.0625 54.296875 48.78125 52.59375 
z
" id="DejaVuSans-63"/>
      <path d="M 8.5 21.578125 
L 8.5 54.6875 
L 17.484375 54.6875 
L 17.484375 21.921875 
Q 17.484375 14.15625 20.5 10.265625 
Q 23.53125 6.390625 29.59375 6.390625 
Q 36.859375 6.390625 41.078125 11.03125 
Q 45.3125 15.671875 45.3125 23.6875 
L 45.3125 54.6875 
L 54.296875 54.6875 
L 54.296875 0 
L 45.3125 0 
L 45.3125 8.40625 
Q 42.046875 3.421875 37.71875 1 
Q 33.40625 -1.421875 27.6875 -1.421875 
Q 18.265625 -1.421875 13.375 4.4375 
Q 8.5 10.296875 8.5 21.578125 
z
M 31.109375 56 
z
" id="DejaVuSans-75"/>
      <path d="M 18.3125 70.21875 
L 18.3125 54.6875 
L 36.8125 54.6875 
L 36.8125 47.703125 
L 18.3125 47.703125 
L 18.3125 18.015625 
Q 18.3125 11.328125 20.140625 9.421875 
Q 21.96875 7.515625 27.59375 7.515625 
L 36.8125 7.515625 
L 36.8125 0 
L 27.59375 0 
Q 17.1875 0 13.234375 3.875 
Q 9.28125 7.765625 9.28125 18.015625 
L 9.28125 47.703125 
L 2.6875 47.703125 
L 2.6875 54.6875 
L 9.28125 54.6875 
L 9.28125 70.21875 
z
" id="DejaVuSans-74"/>
      <path d="M 9.421875 54.6875 
L 18.40625 54.6875 
L 18.40625 0 
L 9.421875 0 
z
M 9.421875 75.984375 
L 18.40625 75.984375 
L 18.40625 64.59375 
L 9.421875 64.59375 
z
" id="DejaVuSans-69"/>
      <path d="M 54.890625 33.015625 
L 54.890625 0 
L 45.90625 0 
L 45.90625 32.71875 
Q 45.90625 40.484375 42.875 44.328125 
Q 39.84375 48.1875 33.796875 48.1875 
Q 26.515625 48.1875 22.3125 43.546875 
Q 18.109375 38.921875 18.109375 30.90625 
L 18.109375 0 
L 9.078125 0 
L 9.078125 54.6875 
L 18.109375 54.6875 
L 18.109375 46.1875 
Q 21.34375 51.125 25.703125 53.5625 
Q 30.078125 56 35.796875 56 
Q 45.21875 56 50.046875 50.171875 
Q 54.890625 44.34375 54.890625 33.015625 
z
" id="DejaVuSans-6e"/>
      <path d="M 45.40625 27.984375 
Q 45.40625 37.75 41.375 43.109375 
Q 37.359375 48.484375 30.078125 48.484375 
Q 22.859375 48.484375 18.828125 43.109375 
Q 14.796875 37.75 14.796875 27.984375 
Q 14.796875 18.265625 18.828125 12.890625 
Q 22.859375 7.515625 30.078125 7.515625 
Q 37.359375 7.515625 41.375 12.890625 
Q 45.40625 18.265625 45.40625 27.984375 
z
M 54.390625 6.78125 
Q 54.390625 -7.171875 48.1875 -13.984375 
Q 42 -20.796875 29.203125 -20.796875 
Q 24.46875 -20.796875 20.265625 -20.09375 
Q 16.0625 -19.390625 12.109375 -17.921875 
L 12.109375 -9.1875 
Q 16.0625 -11.328125 19.921875 -12.34375 
Q 23.78125 -13.375 27.78125 -13.375 
Q 36.625 -13.375 41.015625 -8.765625 
Q 45.40625 -4.15625 45.40625 5.171875 
L 45.40625 9.625 
Q 42.625 4.78125 38.28125 2.390625 
Q 33.9375 0 27.875 0 
Q 17.828125 0 11.671875 7.65625 
Q 5.515625 15.328125 5.515625 27.984375 
Q 5.515625 40.671875 11.671875 48.328125 
Q 17.828125 56 27.875 56 
Q 33.9375 56 38.28125 53.609375 
Q 42.625 51.21875 45.40625 46.390625 
L 45.40625 54.6875 
L 54.390625 54.6875 
z
" id="DejaVuSans-67"/>
      <path id="DejaVuSans-20"/>
      <path d="M 45.40625 46.390625 
L 45.40625 75.984375 
L 54.390625 75.984375 
L 54.390625 0 
L 45.40625 0 
L 45.40625 8.203125 
Q 42.578125 3.328125 38.25 0.953125 
Q 33.9375 -1.421875 27.875 -1.421875 
Q 17.96875 -1.421875 11.734375 6.484375 
Q 5.515625 14.40625 5.515625 27.296875 
Q 5.515625 40.1875 11.734375 48.09375 
Q 17.96875 56 27.875 56 
Q 33.9375 56 38.25 53.625 
Q 42.578125 51.265625 45.40625 46.390625 
z
M 14.796875 27.296875 
Q 14.796875 17.390625 18.875 11.75 
Q 22.953125 6.109375 30.078125 6.109375 
Q 37.203125 6.109375 41.296875 11.75 
Q 45.40625 17.390625 45.40625 27.296875 
Q 45.40625 37.203125 41.296875 42.84375 
Q 37.203125 48.484375 30.078125 48.484375 
Q 22.953125 48.484375 18.875 42.84375 
Q 14.796875 37.203125 14.796875 27.296875 
z
" id="DejaVuSans-64"/>
      <path d="M 52 44.1875 
Q 55.375 50.25 60.0625 53.125 
Q 64.75 56 71.09375 56 
Q 79.640625 56 84.28125 50.015625 
Q 88.921875 44.046875 88.921875 33.015625 
L 88.921875 0 
L 79.890625 0 
L 79.890625 32.71875 
Q 79.890625 40.578125 77.09375 44.375 
Q 74.3125 48.1875 68.609375 48.1875 
Q 61.625 48.1875 57.5625 43.546875 
Q 53.515625 38.921875 53.515625 30.90625 
L 53.515625 0 
L 44.484375 0 
L 44.484375 32.71875 
Q 44.484375 40.625 41.703125 44.40625 
Q 38.921875 48.1875 33.109375 48.1875 
Q 26.21875 48.1875 22.15625 43.53125 
Q 18.109375 38.875 18.109375 30.90625 
L 18.109375 0 
L 9.078125 0 
L 9.078125 54.6875 
L 18.109375 54.6875 
L 18.109375 46.1875 
Q 21.1875 51.21875 25.484375 53.609375 
Q 29.78125 56 35.6875 56 
Q 41.65625 56 45.828125 52.96875 
Q 50 49.953125 52 44.1875 
z
" id="DejaVuSans-6d"/>
      <path d="M 56.203125 29.59375 
L 56.203125 25.203125 
L 14.890625 25.203125 
Q 15.484375 15.921875 20.484375 11.0625 
Q 25.484375 6.203125 34.421875 6.203125 
Q 39.59375 6.203125 44.453125 7.46875 
Q 49.3125 8.734375 54.109375 11.28125 
L 54.109375 2.78125 
Q 49.265625 0.734375 44.1875 -0.34375 
Q 39.109375 -1.421875 33.890625 -1.421875 
Q 20.796875 -1.421875 13.15625 6.1875 
Q 5.515625 13.8125 5.515625 26.8125 
Q 5.515625 40.234375 12.765625 48.109375 
Q 20.015625 56 32.328125 56 
Q 43.359375 56 49.78125 48.890625 
Q 56.203125 41.796875 56.203125 29.59375 
z
M 47.21875 32.234375 
Q 47.125 39.59375 43.09375 43.984375 
Q 39.0625 48.390625 32.421875 48.390625 
Q 24.90625 48.390625 20.390625 44.140625 
Q 15.875 39.890625 15.1875 32.171875 
z
" id="DejaVuSans-65"/>
      <path d="M 44.28125 53.078125 
L 44.28125 44.578125 
Q 40.484375 46.53125 36.375 47.5 
Q 32.28125 48.484375 27.875 48.484375 
Q 21.1875 48.484375 17.84375 46.4375 
Q 14.5 44.390625 14.5 40.28125 
Q 14.5 37.15625 16.890625 35.375 
Q 19.28125 33.59375 26.515625 31.984375 
L 29.59375 31.296875 
Q 39.15625 29.25 43.1875 25.515625 
Q 47.21875 21.78125 47.21875 15.09375 
Q 47.21875 7.46875 41.1875 3.015625 
Q 35.15625 -1.421875 24.609375 -1.421875 
Q 20.21875 -1.421875 15.453125 -0.5625 
Q 10.6875 0.296875 5.421875 2 
L 5.421875 11.28125 
Q 10.40625 8.6875 15.234375 7.390625 
Q 20.0625 6.109375 24.8125 6.109375 
Q 31.15625 6.109375 34.5625 8.28125 
Q 37.984375 10.453125 37.984375 14.40625 
Q 37.984375 18.0625 35.515625 20.015625 
Q 33.0625 21.96875 24.703125 23.78125 
L 21.578125 24.515625 
Q 13.234375 26.265625 9.515625 29.90625 
Q 5.8125 33.546875 5.8125 39.890625 
Q 5.8125 47.609375 11.28125 51.796875 
Q 16.75 56 26.8125 56 
Q 31.78125 56 36.171875 55.265625 
Q 40.578125 54.546875 44.28125 53.078125 
z
" id="DejaVuSans-73"/>
      <path d="M 30.609375 48.390625 
Q 23.390625 48.390625 19.1875 42.75 
Q 14.984375 37.109375 14.984375 27.296875 
Q 14.984375 17.484375 19.15625 11.84375 
Q 23.34375 6.203125 30.609375 6.203125 
Q 37.796875 6.203125 41.984375 11.859375 
Q 46.1875 17.53125 46.1875 27.296875 
Q 46.1875 37.015625 41.984375 42.703125 
Q 37.796875 48.390625 30.609375 48.390625 
z
M 30.609375 56 
Q 42.328125 56 49.015625 48.375 
Q 55.71875 40.765625 55.71875 27.296875 
Q 55.71875 13.875 49.015625 6.21875 
Q 42.328125 -1.421875 30.609375 -1.421875 
Q 18.84375 -1.421875 12.171875 6.21875 
Q 5.515625 13.875 5.515625 27.296875 
Q 5.515625 40.765625 12.171875 48.375 
Q 18.84375 56 30.609375 56 
z
" id="DejaVuSans-6f"/>
      <path d="M 41.796875 8.203125 
Q 38.1875 3.46875 33.25 1.015625 
Q 28.328125 -1.421875 22.3125 -1.421875 
Q 14.109375 -1.421875 9.34375 4.171875 
Q 4.59375 9.765625 4.59375 19.484375 
Q 4.59375 27.59375 7.46875 34.9375 
Q 10.359375 42.28125 15.828125 48.09375 
Q 19.4375 51.953125 23.96875 53.96875 
Q 28.515625 56 33.5 56 
Q 38.765625 56 42.796875 53.453125 
Q 46.828125 50.921875 49.03125 46.1875 
L 54.890625 75.984375 
L 63.921875 75.984375 
L 49.125 0 
L 40.09375 0 
z
M 13.921875 21.09375 
Q 13.921875 14.015625 17.109375 10.0625 
Q 20.3125 6.109375 25.984375 6.109375 
Q 30.171875 6.109375 33.765625 8.125 
Q 37.359375 10.15625 40.09375 14.109375 
Q 42.96875 18.21875 44.625 23.578125 
Q 46.296875 28.953125 46.296875 34.1875 
Q 46.296875 40.96875 43.09375 44.765625 
Q 39.890625 48.578125 34.28125 48.578125 
Q 30.03125 48.578125 26.359375 46.578125 
Q 22.703125 44.578125 20.125 40.828125 
Q 17.28125 36.765625 15.59375 31.390625 
Q 13.921875 26.03125 13.921875 21.09375 
z
" id="DejaVuSans-Oblique-64"/>
     </defs>
     <g transform="translate(186.31 335.862125)scale(0.1 -0.1)">
      <use transform="translate(0 0.015625)" xlink:href="#DejaVuSans-63"/>
      <use transform="translate(54.980469 0.015625)" xlink:href="#DejaVuSans-75"/>
      <use transform="translate(118.359375 0.015625)" xlink:href="#DejaVuSans-74"/>
      <use transform="translate(157.568359 0.015625)" xlink:href="#DejaVuSans-74"/>
      <use transform="translate(196.777344 0.015625)" xlink:href="#DejaVuSans-69"/>
      <use transform="translate(224.560547 0.015625)" xlink:href="#DejaVuSans-6e"/>
      <use transform="translate(287.939453 0.015625)" xlink:href="#DejaVuSans-67"/>
      <use transform="translate(351.416016 0.015625)" xlink:href="#DejaVuSans-20"/>
      <use transform="translate(383.203125 0.015625)" xlink:href="#DejaVuSans-64"/>
      <use transform="translate(446.679688 0.015625)" xlink:href="#DejaVuSans-69"/>
      <use transform="translate(474.462891 0.015625)" xlink:href="#DejaVuSans-6d"/>
      <use transform="translate(571.875 0.015625)" xlink:href="#DejaVuSans-65"/>
      <use transform="translate(633.398438 0.015625)" xlink:href="#DejaVuSans-6e"/>
      <use transform="translate(696.777344 0.015625)" xlink:href="#DejaVuSans-73"/>
      <use transform="translate(748.876953 0.015625)" xlink:href="#DejaVuSans-69"/>
      <use transform="translate(776.660156 0.015625)" xlink:href="#DejaVuSans-6f"/>
      <use transform="translate(837.841797 0.015625)" xlink:href="#DejaVuSans-6e"/>
      <use transform="translate(901.220703 0.015625)" xlink:href="#DejaVuSans-20"/>
      <use transform="translate(933.007812 0.015625)" xlink:href="#DejaVuSans-Oblique-64"/>
     </g>
    </g>
   </g>
   <g id="matplotlib.axis_2">
    <g id="ytick_1">
     <g id="line2d_6">
      <defs>
       <path d="M 0 0 
L -3.5 0 
" id="m074a034dc5" style="stroke:#000000;stroke-width:0.8;"/>
      </defs>
      <g>
       <use style="stroke:#000000;stroke-width:0.8;" x="57.6" xlink:href="#m074a034dc5" y="287.246537"/>
      </g>
     </g>
     <g id="text_7">
      <!-- 0.5 -->
      <defs>
       <path d="M 10.6875 12.40625 
L 21 12.40625 
L 21 0 
L 10.6875 0 
z
" id="DejaVuSans-2e"/>
       <path d="M 10.796875 72.90625 
L 49.515625 72.90625 
L 49.515625 64.59375 
L 19.828125 64.59375 
L 19.828125 46.734375 
Q 21.96875 47.46875 24.109375 47.828125 
Q 26.265625 48.1875 28.421875 48.1875 
Q 40.625 48.1875 47.75 41.5 
Q 54.890625 34.8125 54.890625 23.390625 
Q 54.890625 11.625 47.5625 5.09375 
Q 40.234375 -1.421875 26.90625 -1.421875 
Q 22.3125 -1.421875 17.546875 -0.640625 
Q 12.796875 0.140625 7.71875 1.703125 
L 7.71875 11.625 
Q 12.109375 9.234375 16.796875 8.0625 
Q 21.484375 6.890625 26.703125 6.890625 
Q 35.15625 6.890625 40.078125 11.328125 
Q 45.015625 15.765625 45.015625 23.390625 
Q 45.015625 31 40.078125 35.4375 
Q 35.15625 39.890625 26.703125 39.890625 
Q 22.75 39.890625 18.8125 39.015625 
Q 14.890625 38.140625 10.796875 36.28125 
z
" id="DejaVuSans-35"/>
      </defs>
      <g transform="translate(34.696875 291.045756)scale(0.1 -0.1)">
       <use xlink:href="#DejaVuSans-30"/>
       <use x="63.623047" xlink:href="#DejaVuSans-2e"/>
       <use x="95.410156" xlink:href="#DejaVuSans-35"/>
      </g>
     </g>
    </g>
    <g id="ytick_2">
     <g id="line2d_7">
      <g>
       <use style="stroke:#000000;stroke-width:0.8;" x="57.6" xlink:href="#m074a034dc5" y="240.51083"/>
      </g>
     </g>
     <g id="text_8">
      <!-- 0.6 -->
      <g transform="translate(34.696875 244.310049)scale(0.1 -0.1)">
       <use xlink:href="#DejaVuSans-30"/>
       <use x="63.623047" xlink:href="#DejaVuSans-2e"/>
       <use x="95.410156" xlink:href="#DejaVuSans-36"/>
      </g>
     </g>
    </g>
    <g id="ytick_3">
     <g id="line2d_8">
      <g>
       <use style="stroke:#000000;stroke-width:0.8;" x="57.6" xlink:href="#m074a034dc5" y="193.775122"/>
      </g>
     </g>
     <g id="text_9">
      <!-- 0.7 -->
      <defs>
       <path d="M 8.203125 72.90625 
L 55.078125 72.90625 
L 55.078125 68.703125 
L 28.609375 0 
L 18.3125 0 
L 43.21875 64.59375 
L 8.203125 64.59375 
z
" id="DejaVuSans-37"/>
      </defs>
      <g transform="translate(34.696875 197.574341)scale(0.1 -0.1)">
       <use xlink:href="#DejaVuSans-30"/>
       <use x="63.623047" xlink:href="#DejaVuSans-2e"/>
       <use x="95.410156" xlink:href="#DejaVuSans-37"/>
      </g>
     </g>
    </g>
    <g id="ytick_4">
     <g id="line2d_9">
      <g>
       <use style="stroke:#000000;stroke-width:0.8;" x="57.6" xlink:href="#m074a034dc5" y="147.039415"/>
      </g>
     </g>
     <g id="text_10">
      <!-- 0.8 -->
      <g transform="translate(34.696875 150.838634)scale(0.1 -0.1)">
       <use xlink:href="#DejaVuSans-30"/>
       <use x="63.623047" xlink:href="#DejaVuSans-2e"/>
       <use x="95.410156" xlink:href="#DejaVuSans-38"/>
      </g>
     </g>
    </g>
    <g id="ytick_5">
     <g id="line2d_10">
      <g>
       <use style="stroke:#000000;stroke-width:0.8;" x="57.6" xlink:href="#m074a034dc5" y="100.303707"/>
      </g>
     </g>
     <g id="text_11">
      <!-- 0.9 -->
      <defs>
       <path d="M 10.984375 1.515625 
L 10.984375 10.5 
Q 14.703125 8.734375 18.5 7.8125 
Q 22.3125 6.890625 25.984375 6.890625 
Q 35.75 6.890625 40.890625 13.453125 
Q 46.046875 20.015625 46.78125 33.40625 
Q 43.953125 29.203125 39.59375 26.953125 
Q 35.25 24.703125 29.984375 24.703125 
Q 19.046875 24.703125 12.671875 31.3125 
Q 6.296875 37.9375 6.296875 49.421875 
Q 6.296875 60.640625 12.9375 67.421875 
Q 19.578125 74.21875 30.609375 74.21875 
Q 43.265625 74.21875 49.921875 64.515625 
Q 56.59375 54.828125 56.59375 36.375 
Q 56.59375 19.140625 48.40625 8.859375 
Q 40.234375 -1.421875 26.421875 -1.421875 
Q 22.703125 -1.421875 18.890625 -0.6875 
Q 15.09375 0.046875 10.984375 1.515625 
z
M 30.609375 32.421875 
Q 37.25 32.421875 41.125 36.953125 
Q 45.015625 41.5 45.015625 49.421875 
Q 45.015625 57.28125 41.125 61.84375 
Q 37.25 66.40625 30.609375 66.40625 
Q 23.96875 66.40625 20.09375 61.84375 
Q 16.21875 57.28125 16.21875 49.421875 
Q 16.21875 41.5 20.09375 36.953125 
Q 23.96875 32.421875 30.609375 32.421875 
z
" id="DejaVuSans-39"/>
      </defs>
      <g transform="translate(34.696875 104.102926)scale(0.1 -0.1)">
       <use xlink:href="#DejaVuSans-30"/>
       <use x="63.623047" xlink:href="#DejaVuSans-2e"/>
       <use x="95.410156" xlink:href="#DejaVuSans-39"/>
      </g>
     </g>
    </g>
    <g id="ytick_6">
     <g id="line2d_11">
      <g>
       <use style="stroke:#000000;stroke-width:0.8;" x="57.6" xlink:href="#m074a034dc5" y="53.568"/>
      </g>
     </g>
     <g id="text_12">
      <!-- 1.0 -->
      <g transform="translate(34.696875 57.367219)scale(0.1 -0.1)">
       <use xlink:href="#DejaVuSans-31"/>
       <use x="63.623047" xlink:href="#DejaVuSans-2e"/>
       <use x="95.410156" xlink:href="#DejaVuSans-30"/>
      </g>
     </g>
    </g>
    <g id="text_13">
     <!-- rest norm -->
     <defs>
      <path d="M 41.109375 46.296875 
Q 39.59375 47.171875 37.8125 47.578125 
Q 36.03125 48 33.890625 48 
Q 26.265625 48 22.1875 43.046875 
Q 18.109375 38.09375 18.109375 28.8125 
L 18.109375 0 
L 9.078125 0 
L 9.078125 54.6875 
L 18.109375 54.6875 
L 18.109375 46.1875 
Q 20.953125 51.171875 25.484375 53.578125 
Q 30.03125 56 36.53125 56 
Q 37.453125 56 38.578125 55.875 
Q 39.703125 55.765625 41.0625 55.515625 
z
" id="DejaVuSans-72"/>
     </defs>
     <g transform="translate(28.617187 198.9655)rotate(-90)scale(0.1 -0.1)">
      <use xlink:href="#DejaVuSans-72"/>
      <use x="41.082031" xlink:href="#DejaVuSans-65"/>
      <use x="102.605469" xlink:href="#DejaVuSans-73"/>
      <use x="154.705078" xlink:href="#DejaVuSans-74"/>
      <use x="193.914062" xlink:href="#DejaVuSans-20"/>
      <use x="225.701172" xlink:href="#DejaVuSans-6e"/>
      <use x="289.080078" xlink:href="#DejaVuSans-6f"/>
      <use x="350.261719" xlink:href="#DejaVuSans-72"/>
      <use x="391.359375" xlink:href="#DejaVuSans-6d"/>
     </g>
    </g>
   </g>
   <g id="LineCollection_1">
    <path clip-path="url(#p71934dab7f)" d="M 78.104498 150.321652 
L 86.648038 150.321652 
" style="fill:none;stroke:#1f77b4;stroke-width:1.5;"/>
    <path clip-path="url(#p71934dab7f)" d="M 112.27866 97.036886 
L 120.822201 97.036886 
" style="fill:none;stroke:#1f77b4;stroke-width:1.5;"/>
    <path clip-path="url(#p71934dab7f)" d="M 146.452823 80.712673 
L 154.996364 80.712673 
" style="fill:none;stroke:#1f77b4;stroke-width:1.5;"/>
    <path clip-path="url(#p71934dab7f)" d="M 180.626986 72.029369 
L 189.170526 72.029369 
" style="fill:none;stroke:#1f77b4;stroke-width:1.5;"/>
    <path clip-path="url(#p71934dab7f)" d="M 214.801148 66.442851 
L 223.344689 66.442851 
" style="fill:none;stroke:#1f77b4;stroke-width:1.5;"/>
    <path clip-path="url(#p71934dab7f)" d="M 248.975311 62.632644 
L 257.518852 62.632644 
" style="fill:none;stroke:#1f77b4;stroke-width:1.5;"/>
    <path clip-path="url(#p71934dab7f)" d="M 283.149474 59.87824 
L 291.693014 59.87824 
" style="fill:none;stroke:#1f77b4;stroke-width:1.5;"/>
    <path clip-path="url(#p71934dab7f)" d="M 317.323636 57.844933 
L 325.867177 57.844933 
" style="fill:none;stroke:#1f77b4;stroke-width:1.5;"/>
    <path clip-path="url(#p71934dab7f)" d="M 351.497799 56.43555 
L 360.04134 56.43555 
" style="fill:none;stroke:#1f77b4;stroke-width:1.5;"/>
    <path clip-path="url(#p71934dab7f)" d="M 385.671962 55.42149 
L 394.215502 55.42149 
" style="fill:none;stroke:#1f77b4;stroke-width:1.5;"/>
   </g>
   <g id="LineCollection_2">
    <path clip-path="url(#p71934dab7f)" d="M 78.104498 57.224274 
L 86.648038 57.224274 
" style="fill:none;stroke:#1f77b4;stroke-width:1.5;"/>
    <path clip-path="url(#p71934dab7f)" d="M 112.27866 54.768423 
L 120.822201 54.768423 
" style="fill:none;stroke:#1f77b4;stroke-width:1.5;"/>
    <path clip-path="url(#p71934dab7f)" d="M 146.452823 54.002119 
L 154.996364 54.002119 
" style="fill:none;stroke:#1f77b4;stroke-width:1.5;"/>
    <path clip-path="url(#p71934dab7f)" d="M 180.626986 53.812247 
L 189.170526 53.812247 
" style="fill:none;stroke:#1f77b4;stroke-width:1.5;"/>
    <path clip-path="url(#p71934dab7f)" d="M 214.801148 53.725257 
L 223.344689 53.725257 
" style="fill:none;stroke:#1f77b4;stroke-width:1.5;"/>
    <path clip-path="url(#p71934dab7f)" d="M 248.975311 53.651668 
L 257.518852 53.651668 
" style="fill:none;stroke:#1f77b4;stroke-width:1.5;"/>
    <path clip-path="url(#p71934dab7f)" d="M 283.149474 53.569853 
L 291.693014 53.569853 
" style="fill:none;stroke:#1f77b4;stroke-width:1.5;"/>
    <path clip-path="url(#p71934dab7f)" d="M 317.323636 53.568 
L 325.867177 53.568 
" style="fill:none;stroke:#1f77b4;stroke-width:1.5;"/>
    <path clip-path="url(#p71934dab7f)" d="M 351.497799 53.568 
L 360.04134 53.568 
" style="fill:none;stroke:#1f77b4;stroke-width:1.5;"/>
    <path clip-path="url(#p71934dab7f)" d="M 385.671962 53.568 
L 394.215502 53.568 
" style="fill:none;stroke:#1f77b4;stroke-width:1.5;"/>
   </g>
   <g id="LineCollection_3">
    <path clip-path="url(#p71934dab7f)" d="M 78.104498 295.488 
L 86.648038 295.488 
" style="fill:none;stroke:#1f77b4;stroke-width:1.5;"/>
    <path clip-path="url(#p71934dab7f)" d="M 112.27866 221.093848 
L 120.822201 221.093848 
" style="fill:none;stroke:#1f77b4;stroke-width:1.5;"/>
    <path clip-path="url(#p71934dab7f)" d="M 146.452823 170.877343 
L 154.996364 170.877343 
" style="fill:none;stroke:#1f77b4;stroke-width:1.5;"/>
    <path clip-path="url(#p71934dab7f)" d="M 180.626986 146.487694 
L 189.170526 146.487694 
" style="fill:none;stroke:#1f77b4;stroke-width:1.5;"/>
    <path clip-path="url(#p71934dab7f)" d="M 214.801148 124.549797 
L 223.344689 124.549797 
" style="fill:none;stroke:#1f77b4;stroke-width:1.5;"/>
    <path clip-path="url(#p71934dab7f)" d="M 248.975311 109.133586 
L 257.518852 109.133586 
" style="fill:none;stroke:#1f77b4;stroke-width:1.5;"/>
    <path clip-path="url(#p71934dab7f)" d="M 283.149474 95.133389 
L 291.693014 95.133389 
" style="fill:none;stroke:#1f77b4;stroke-width:1.5;"/>
    <path clip-path="url(#p71934dab7f)" d="M 317.323636 82.98253 
L 325.867177 82.98253 
" style="fill:none;stroke:#1f77b4;stroke-width:1.5;"/>
    <path clip-path="url(#p71934dab7f)" d="M 351.497799 74.651824 
L 360.04134 74.651824 
" style="fill:none;stroke:#1f77b4;stroke-width:1.5;"/>
    <path clip-path="url(#p71934dab7f)" d="M 385.671962 68.783684 
L 394.215502 68.783684 
" style="fill:none;stroke:#1f77b4;stroke-width:1.5;"/>
   </g>
   <g id="LineCollection_4">
    <path clip-path="url(#p71934dab7f)" d="M 82.376268 295.488 
L 82.376268 57.224274 
" style="fill:none;stroke:#1f77b4;stroke-width:1.5;"/>
    <path clip-path="url(#p71934dab7f)" d="M 116.550431 221.093848 
L 116.550431 54.768423 
" style="fill:none;stroke:#1f77b4;stroke-width:1.5;"/>
    <path clip-path="url(#p71934dab7f)" d="M 150.724593 170.877343 
L 150.724593 54.002119 
" style="fill:none;stroke:#1f77b4;stroke-width:1.5;"/>
    <path clip-path="url(#p71934dab7f)" d="M 184.898756 146.487694 
L 184.898756 53.812247 
" style="fill:none;stroke:#1f77b4;stroke-width:1.5;"/>
    <path clip-path="url(#p71934dab7f)" d="M 219.072919 124.549797 
L 219.072919 53.725257 
" style="fill:none;stroke:#1f77b4;stroke-width:1.5;"/>
    <path clip-path="url(#p71934dab7f)" d="M 253.247081 109.133586 
L 253.247081 53.651668 
" style="fill:none;stroke:#1f77b4;stroke-width:1.5;"/>
    <path clip-path="url(#p71934dab7f)" d="M 287.421244 95.133389 
L 287.421244 53.569853 
" style="fill:none;stroke:#1f77b4;stroke-width:1.5;"/>
    <path clip-path="url(#p71934dab7f)" d="M 321.595407 82.98253 
L 321.595407 53.568 
" style="fill:none;stroke:#1f77b4;stroke-width:1.5;"/>
    <path clip-path="url(#p71934dab7f)" d="M 355.769569 74.651824 
L 355.769569 53.568 
" style="fill:none;stroke:#1f77b4;stroke-width:1.5;"/>
    <path clip-path="url(#p71934dab7f)" d="M 389.943732 68.783684 
L 389.943732 53.568 
" style="fill:none;stroke:#1f77b4;stroke-width:1.5;"/>
   </g>
   <g id="line2d_12">
    <path clip-path="url(#p71934dab7f)" d="M 82.376268 150.321652 
L 116.550431 97.036886 
L 150.724593 80.712673 
L 184.898756 72.029369 
L 219.072919 66.442851 
L 253.247081 62.632644 
L 287.421244 59.87824 
L 321.595407 57.844933 
L 355.769569 56.43555 
L 389.943732 55.42149 
" style="fill:none;stroke:#ff7f0e;stroke-linecap:square;stroke-width:1.5;"/>
   </g>
   <g id="patch_3">
    <path d="M 57.6 307.584 
L 57.6 41.472 
" style="fill:none;stroke:#000000;stroke-linecap:square;stroke-linejoin:miter;stroke-width:0.8;"/>
   </g>
   <g id="patch_4">
    <path d="M 414.72 307.584 
L 414.72 41.472 
" style="fill:none;stroke:#000000;stroke-linecap:square;stroke-linejoin:miter;stroke-width:0.8;"/>
   </g>
   <g id="patch_5">
    <path d="M 57.6 307.584 
L 414.72 307.584 
" style="fill:none;stroke:#000000;stroke-linecap:square;stroke-linejoin:miter;stroke-width:0.8;"/>
   </g>
   <g id="patch_6">
    <path d="M 57.6 41.472 
L 414.72 41.472 
" style="fill:none;stroke:#000000;stroke-linecap:square;stroke-linejoin:miter;stroke-width:0.8;"/>
   </g>
   <g id="patch_7">
    <path d="M 304.746196 134.296748 
Q 289.546019 98.466938 255.935225 78.515086 
" style="fill:none;stroke:#000000;stroke-linecap:round;"/>
    <path d="M 258.353943 82.276708 
L 255.935225 78.515086 
L 260.395754 78.837085 
" style="fill:none;stroke:#000000;stroke-linecap:round;"/>
   </g>
   <g id="text_14">
    <!-- cutting dimension = 6 -->
    <defs>
     <path d="M 10.59375 45.40625 
L 73.1875 45.40625 
L 73.1875 37.203125 
L 10.59375 37.203125 
z
M 10.59375 25.484375 
L 73.1875 25.484375 
L 73.1875 17.1875 
L 10.59375 17.1875 
z
" id="DejaVuSans-3d"/>
    </defs>
    <g transform="translate(254.247081 145.738041)scale(0.1 -0.1)">
     <use xlink:href="#DejaVuSans-63"/>
     <use x="54.980469" xlink:href="#DejaVuSans-75"/>
     <use x="118.359375" xlink:href="#DejaVuSans-74"/>
     <use x="157.568359" xlink:href="#DejaVuSans-74"/>
     <use x="196.777344" xlink:href="#DejaVuSans-69"/>
     <use x="224.560547" xlink:href="#DejaVuSans-6e"/>
     <use x="287.939453" xlink:href="#DejaVuSans-67"/>
     <use x="351.416016" xlink:href="#DejaVuSans-20"/>
     <use x="383.203125" xlink:href="#DejaVuSans-64"/>
     <use x="446.679688" xlink:href="#DejaVuSans-69"/>
     <use x="474.462891" xlink:href="#DejaVuSans-6d"/>
     <use x="571.875" xlink:href="#DejaVuSans-65"/>
     <use x="633.398438" xlink:href="#DejaVuSans-6e"/>
     <use x="696.777344" xlink:href="#DejaVuSans-73"/>
     <use x="748.876953" xlink:href="#DejaVuSans-69"/>
     <use x="776.660156" xlink:href="#DejaVuSans-6f"/>
     <use x="837.841797" xlink:href="#DejaVuSans-6e"/>
     <use x="901.220703" xlink:href="#DejaVuSans-20"/>
     <use x="933.007812" xlink:href="#DejaVuSans-3d"/>
     <use x="1016.796875" xlink:href="#DejaVuSans-20"/>
     <use x="1048.583984" xlink:href="#DejaVuSans-36"/>
    </g>
    <!--  cutting norm=0.95 -->
    <g transform="translate(254.247081 156.935854)scale(0.1 -0.1)">
     <use xlink:href="#DejaVuSans-20"/>
     <use x="31.787109" xlink:href="#DejaVuSans-63"/>
     <use x="86.767578" xlink:href="#DejaVuSans-75"/>
     <use x="150.146484" xlink:href="#DejaVuSans-74"/>
     <use x="189.355469" xlink:href="#DejaVuSans-74"/>
     <use x="228.564453" xlink:href="#DejaVuSans-69"/>
     <use x="256.347656" xlink:href="#DejaVuSans-6e"/>
     <use x="319.726562" xlink:href="#DejaVuSans-67"/>
     <use x="383.203125" xlink:href="#DejaVuSans-20"/>
     <use x="414.990234" xlink:href="#DejaVuSans-6e"/>
     <use x="478.369141" xlink:href="#DejaVuSans-6f"/>
     <use x="539.550781" xlink:href="#DejaVuSans-72"/>
     <use x="580.648438" xlink:href="#DejaVuSans-6d"/>
     <use x="678.060547" xlink:href="#DejaVuSans-3d"/>
     <use x="761.849609" xlink:href="#DejaVuSans-30"/>
     <use x="825.472656" xlink:href="#DejaVuSans-2e"/>
     <use x="857.259766" xlink:href="#DejaVuSans-39"/>
     <use x="920.882812" xlink:href="#DejaVuSans-35"/>
    </g>
   </g>
  </g>
 </g>
 <defs>
  <clipPath id="p71934dab7f">
   <rect height="266.112" width="357.12" x="57.6" y="41.472"/>
  </clipPath>
 </defs>
</svg>
